<?xml version="1.0" encoding="utf-8"?>
<!-- Generator: Adobe Illustrator 16.0.0, SVG Export Plug-In . SVG Version: 6.00 Build 0)  -->
<!DOCTYPE svg PUBLIC "-//W3C//DTD SVG 1.1//EN" "http://www.w3.org/Graphics/SVG/1.1/DTD/svg11.dtd">
<svg version="1.1" id="Layer_2" xmlns="http://www.w3.org/2000/svg" xmlns:xlink="http://www.w3.org/1999/xlink" x="0px" y="0px"
	 width="677.894px" height="124.669px" viewBox="0 0 677.894 124.669" enable-background="new 0 0 677.894 124.669"
	 xml:space="preserve">
<path fill-rule="evenodd" clip-rule="evenodd" fill="#FFFFFF" d="M587.322,49.593c-3.13,0.838-5.618,0.928-8.427,0.016
	c-0.157-1.187-0.458-2.413-0.461-3.639c-0.033-13.576-0.029-27.151-0.003-40.726c0.002-1.086,0.238-2.173,0.386-3.43
	c2.741-1.098,5.399-0.579,8.077-0.435c2.884,3.138,4.787,6.855,7.13,10.256c2.264,3.287,4.368,6.684,6.596,9.997
	c2.298,3.416,4.354,7.007,6.855,10.152c1.617-0.52,1.26-1.64,1.265-2.498c0.042-7.346,0.021-14.693,0.04-22.04
	c0.004-1.737,0.086-3.474,0.13-5.096c3.368-1.221,3.747-1.24,8.461-0.434c0.162,1.109,0.492,2.33,0.496,3.551
	c0.036,13.575,0.036,27.15,0.001,40.726c-0.003,1.224-0.32,2.447-0.48,3.595c-2.462,0.986-4.712,0.729-6.904,0.486
	c-0.843-0.093-1.767-0.716-2.375-1.36c-0.866-0.917-1.492-2.065-2.193-3.132c-4.911-7.474-9.798-14.964-14.736-22.419
	c-0.758-1.144-1.217-2.622-2.75-3.08c-1.146,0.581-0.855,1.639-0.859,2.522c-0.032,7.187-0.009,14.374-0.034,21.561
	C587.529,45.893,587.403,47.619,587.322,49.593z"/>
<path fill-rule="evenodd" clip-rule="evenodd" fill="#FFFFFF" d="M674.053,9.099c-1.605,2.455-3.526,4.289-5.878,6
	c-1.358-0.982-2.596-1.95-3.903-2.809c-4.473-2.936-9.309-4.054-14.618-2.921c-7.984,1.703-13.202,8.305-13.299,16.483
	c-0.088,7.324,5.419,14.872,13.53,16.374c2.616,0.484,5.436,0.414,8.087,0.048c4.399-0.606,7.064-3.023,8.784-7.411
	c-2.06-1.123-4.317-0.462-6.444-0.645c-2.035-0.175-4.165,0.427-6.065-0.706c-0.837-3.473-0.837-3.473,0.056-7.191
	c3.609-1.321,7.465-0.567,11.232-0.628c3.811-0.062,7.655-0.399,11.762,0.412c0.206,1.013,0.66,2.069,0.59,3.089
	c-0.586,8.623-4.665,15.239-12.146,19.45c-10.32,5.808-29.16,3.835-36.241-12.018c-8.104-18.143,4.98-36.417,22.847-36.579
	c7.302-0.066,13.937,1.601,19.515,6.519C672.668,7.277,673.288,8.203,674.053,9.099z"/>
<path fill-rule="evenodd" clip-rule="evenodd" fill="#FFFFFF" d="M322.825,26.101c0.608,12.696-10.209,25.576-25.509,25.474
	c-14.18-0.095-25.36-11.471-25.359-25.799c0.001-14.497,11.392-25.639,25.902-25.775C310.685-0.119,323.539,11.563,322.825,26.101z
	 M297.381,42.548c9.091,0.06,16.185-7.081,16.347-16.453c0.162-9.405-7.129-17.204-16.248-17.172
	c-9.745,0.034-16.41,7.968-16.266,17.041C281.363,35.392,288.167,42.487,297.381,42.548z"/>
<path fill-rule="evenodd" clip-rule="evenodd" fill="#FFFFFF" d="M511.483,1.916c0.447-0.277,0.574-0.42,0.713-0.432
	c7.031-0.587,14.06-0.68,21.003,0.761c7.406,1.538,12.04,6.414,14.716,13.18c2.614,6.61,2.764,13.413,0.552,20.212
	c-2.347,7.211-8.367,14.272-18.856,14.375c-4.798,0.046-9.595,0.191-14.392,0.201c-1.221,0.002-2.442-0.343-3.842-0.556
	c-0.139-1.353-0.32-2.436-0.35-3.522C510.579,29.79,510.821,6.168,511.483,1.916z M520.613,10.782
	c-0.116,0.536-0.359,1.144-0.361,1.752c-0.027,8.634-0.043,17.269,0.008,25.902c0.006,0.882,0.462,1.762,0.699,2.607
	c3.26,0.571,6.277,0.443,9.288-0.022c4.74-0.733,7.714-3.562,9.35-7.959c1.143-3.073,1.288-6.259,0.96-9.463
	C539.527,13.546,530.756,7.87,520.613,10.782z"/>
<path fill-rule="evenodd" clip-rule="evenodd" fill="#FFFFFF" d="M42.709,49.631c-3.163,0.843-5.66,0.828-8.172,0.137
	c-1.308-1.737-0.844-3.725-0.851-5.584c-0.043-12.3-0.018-24.599-0.002-36.899c0.002-1.741,0.075-3.481,0.116-5.238
	c2.803-1.461,5.463-0.787,8.402-0.611c0.259,1.098,0.678,2.123,0.712,3.16c0.106,3.192,0.047,6.389,0.091,9.583
	c0.022,1.574,0.132,3.147,0.196,4.594c3.623,1.356,11.084,1.491,16.049,0.312c1.161-5.51-0.073-11.284,0.745-16.879
	c2.963-1.319,3.944-1.371,8.525-0.407c0.144,0.805,0.446,1.712,0.448,2.621c0.029,14.057,0.025,28.113,0.004,42.17
	c-0.001,0.931-0.2,1.861-0.313,2.836c-2.783,1.332-5.418,0.743-8.29,0.521c-0.237-1.265-0.586-2.316-0.604-3.373
	c-0.069-4.152-0.003-8.306-0.052-12.458c-0.019-1.562,0.293-3.197-0.593-4.614c-3.434-0.988-10.24-1.126-15.445-0.274
	c-0.201,0.925-0.603,1.963-0.624,3.009c-0.083,4.152-0.024,8.306-0.068,12.459C42.966,46.261,42.814,47.826,42.709,49.631z"/>
<path fill-rule="evenodd" clip-rule="evenodd" fill="#FFFFFF" d="M405.184,28.756c3.176,7.257,7.363,13.507,10.372,20.33
	c-3.048,1.431-4.045,1.491-9.282,0.601c-1.131-2.003-2.397-4.202-3.619-6.425c-1.153-2.1-2.228-4.244-3.396-6.334
	c-1.206-2.156-2.159-4.491-4.103-6.821c-1.274,2.5-0.79,4.574-0.857,6.549c-0.077,2.234,0.047,4.474-0.017,6.708
	c-0.059,2.045,0.388,4.157-0.678,6.243c-2.571,1.044-5.17,0.873-7.994,0.024c-0.168-0.963-0.464-1.877-0.466-2.792
	c-0.032-14.058-0.032-28.116-0.012-42.173c0.001-0.926,0.229-1.852,0.38-2.986c1.029-0.186,1.94-0.509,2.844-0.486
	c4.782,0.124,9.572,0.207,14.342,0.546c6.644,0.472,11.365,6.164,11.409,13.117c0.033,5.417-1.694,9.674-6.583,12.372
	C406.836,27.607,406.205,28.085,405.184,28.756z M394.753,19.875c2.538,0.842,4.754,0.667,6.925,0.125
	c2.319-0.578,3.525-2.244,3.521-4.521c-0.003-2.242-1.224-4.125-3.367-4.71c-2.3-0.628-4.66-0.876-7.087,0.142
	C394.128,13.886,394.136,16.697,394.753,19.875z"/>
<path fill-rule="evenodd" clip-rule="evenodd" fill="#FFFFFF" d="M150.763,1.357c3.237,0,5.924,0,8.801,0
	c0.599,1.185,1.262,2.258,1.709,3.415c5.284,13.693,10.543,27.395,15.781,41.105c0.441,1.156,0.674,2.392,1.033,3.693
	c-2.916,1.104-5.576,0.658-8.387,0.38c-2.366-2.686-2.328-6.601-4.535-9.245c-3.882-0.669-15.242-0.718-20.014-0.05
	c-1.267,2.823-2.625,5.846-4.013,8.938c-2.85,0.991-5.625,0.767-8.486,0.293c-0.554-2.072,0.481-3.612,1.08-5.183
	c3.351-8.795,6.777-17.562,10.176-26.339c1.671-4.314,3.321-8.636,5.019-12.94C149.443,4.113,150.084,2.849,150.763,1.357z
	 M149.286,30.756c4.161,0.482,7.979,0.917,12.085-0.412c-1.281-4.766-3.236-8.93-4.909-13.19c-0.213-0.542-0.74-0.96-1.156-1.479
	C153.167,18.718,150.445,25.472,149.286,30.756z"/>
<path fill-rule="evenodd" clip-rule="evenodd" fill="#FFFFFF" d="M502.839,49.579c-3.127,1.052-5.787,0.618-8.51,0.44
	c-2.213-2.787-2.483-6.348-4.272-9.07c-3.379-0.962-14.824-1.126-20.37-0.25c-0.911,2.129-1.997,4.421-2.874,6.791
	c-0.71,1.92-1.929,2.817-3.956,2.754c-1.885-0.058-3.806,0.275-5.846-0.518c0.111-0.874,0.093-1.664,0.321-2.375
	c2.873-8.925,16.432-42.839,18.377-45.935c1.113-0.076,2.367-0.227,3.622-0.232c1.579-0.007,3.159,0.104,4.991,0.174
	c2.565,5.224,4.294,10.694,6.395,16.004c2.055,5.196,4.053,10.415,6.014,15.647C498.739,38.367,501.062,43.615,502.839,49.579z
	 M485.712,30.715c-0.653-3.807-3.936-12.654-5.386-14.654c-0.1-0.138-0.556-0.018-0.862-0.018
	c-2.725,4.812-5.048,11.204-5.275,14.697C477.931,31.458,481.663,31.388,485.712,30.715z"/>
<path fill-rule="evenodd" clip-rule="evenodd" fill="#FFFFFF" d="M196.437,30.633c-1.055,6.213,0.276,12.603-0.823,18.922
	c-2.658,1.022-5.111,0.891-7.541,0.212c-1.317-1.622-0.918-3.447-0.927-5.154c-0.041-8.146-0.011-16.292-0.01-24.438
	c0-4.473-0.027-8.945-0.002-13.417c0.009-1.579,0.133-3.158,0.193-4.485c0.55-0.435,0.785-0.782,1.048-0.805
	c5.737-0.492,11.477-0.687,17.167,0.429c6.155,1.206,10.044,5.69,10.503,11.946c0.436,5.935-1.456,10.672-6.896,13.636
	c-0.547,0.298-1.026,0.724-1.739,1.235c0.365,1.058,0.594,2.138,1.086,3.081c2.366,4.529,4.818,9.013,7.204,13.533
	c0.654,1.24,1.183,2.546,1.696,3.664c-0.853,1.531-2.079,1.25-3.125,1.246c-1.747-0.007-3.561,0.074-5.21-0.378
	c-0.882-0.241-1.661-1.417-2.175-2.345c-2.554-4.609-4.994-9.281-7.5-13.917c-0.589-1.089-1.283-2.122-1.929-3.181
	C197.116,30.489,196.776,30.561,196.437,30.633z M196.557,19.768c2.284,1.065,4.507,0.743,6.669,0.313
	c2.591-0.515,4.002-2.292,3.998-4.659c-0.004-2.268-1.535-4.313-3.909-4.811c-2.163-0.453-4.395-0.778-6.674,0.297
	C195.749,13.848,195.83,16.778,196.557,19.768z"/>
<path fill-rule="evenodd" clip-rule="evenodd" fill="#FFFFFF" d="M434.158,10.566c-0.675,3.145-0.928,5.62,0.155,8.288
	c5.353,1.071,10.824-0.252,16.283,0.844c0.801,2.594,0.679,5.045,0.102,7.782c-5.487,1.321-11.143-0.132-16.794,1.039
	c-0.404,4.269-0.597,8.177,0.186,12.165c2.731,1.184,5.472,0.536,8.132,0.659c2.687,0.125,5.38,0.115,8.107,0.165
	c1.253,2.702,0.82,5.185,0.476,7.88c-0.743,0.266-1.46,0.742-2.182,0.748c-7.183,0.066-14.366,0.066-21.549,0.046
	c-0.609-0.001-1.218-0.286-2.024-0.488c-0.196-0.905-0.562-1.806-0.563-2.708c-0.026-14.369-0.011-28.738,0.015-43.107
	c0.001-0.622,0.195-1.244,0.332-2.061c0.737-0.204,1.474-0.581,2.213-0.585c7.184-0.043,14.368-0.033,21.552-0.007
	c0.606,0.002,1.212,0.235,1.732,0.344c0.97,3.399,0.97,3.399,0.342,7.928c-0.901,0.221-1.923,0.651-2.958,0.689
	c-2.87,0.106-5.747,0.017-8.62,0.07C437.535,10.286,435.978,10.447,434.158,10.566z"/>
<path fill-rule="evenodd" clip-rule="evenodd" fill="#FFFFFF" d="M90.296,41.206c5.616,0.097,10.857,0.187,16.118,0.277
	c1.3,2.819,1.051,5.407,0.317,8.113c-0.712,0.216-1.305,0.548-1.9,0.553c-7.026,0.052-14.052,0.069-21.077,0.05
	c-0.766-0.002-1.532-0.283-2.203-0.417c-1.279-1.7-0.899-3.517-0.907-5.224c-0.04-8.304-0.004-16.609-0.002-24.913
	c0.001-4.312-0.031-8.624-0.011-12.937c0.007-1.575,0.121-3.149,0.19-4.841c1-0.271,1.74-0.644,2.482-0.646
	c7.345-0.025,14.69,0.009,22.035,0.042c0.307,0.001,0.613,0.158,1.111,0.296c1.497,2.421,0.801,5.066,0.486,7.972
	c-1.099,0.232-2.141,0.61-3.195,0.645c-2.872,0.095-5.749,0.02-8.623,0.062c-1.572,0.022-3.142,0.146-4.637,0.22
	c-1.419,2.917-0.938,5.519-0.515,8.296c5.603,1.2,11.063-0.037,16.514,0.843c1.252,2.595,0.983,5.173,0.311,7.646
	c-1.672,1.082-3.308,0.734-4.871,0.771c-3.193,0.075-6.39,0.004-9.58,0.125c-1.935,0.073-2.654,0.741-2.687,2.636
	C89.596,34.079,89.051,37.436,90.296,41.206z"/>
<path fill-rule="evenodd" clip-rule="evenodd" fill="#FFFFFF" d="M341.158,49.681c-3.113,0.799-5.597,0.838-8.288-0.043
	c-0.178-0.894-0.515-1.802-0.517-2.711c-0.037-14.072-0.037-28.143-0.019-42.214c0.001-0.93,0.222-1.86,0.361-2.95
	c3.852-1.142,7.691-0.508,11.465-0.573c3.801-0.065,7.631-0.264,11.3,0.221c1.316,3.647,1.332,4.116,0.35,8.102
	c-2.085,1.066-4.365,0.539-6.569,0.653c-2.222,0.115-4.448,0.134-6.653,0.195c-1.703,2.739-1.064,5.389-0.701,8.072
	c2.283,1.377,4.729,0.693,7.063,0.828c2.206,0.128,4.42,0.134,6.485,0.189c1.301,3.494,1.301,3.494,0.48,7.884
	c-4.319,1.654-9.094-0.075-13.254,1.097c-1.375,1.214-1.15,2.56-1.162,3.799c-0.04,4.317,0.005,8.635-0.035,12.952
	C341.451,46.588,341.278,47.996,341.158,49.681z"/>
<path fill-rule="evenodd" clip-rule="evenodd" fill="#FFFFFF" d="M8.917,49.505c-0.06-2.239-0.151-4.133-0.155-6.029
	c-0.019-9.091-0.003-18.183-0.027-27.275C8.73,14.474,8.92,12.707,8.099,10.72c-2.424-0.276-4.893-0.557-7.454-0.849
	c-0.982-2.807-0.637-5.41-0.302-8.171c4.514-0.999,8.811-0.457,13.065-0.504c4.269-0.047,8.56-0.274,12.999,0.236
	c0.828,2.871,0.741,5.477,0.093,8.413c-2.531,0.267-5.022,0.53-7.427,0.784c-1.395,1.625-0.954,3.458-0.962,5.157
	c-0.047,9.57-0.008,19.141-0.036,28.711c-0.005,1.72,0.306,3.514-0.718,5.183C14.704,50.537,12.091,50.523,8.917,49.505z"/>
<path fill-rule="evenodd" clip-rule="evenodd" fill="#FFFFFF" d="M229.562,10.605c-2.485-0.208-4.836-0.405-7.295-0.612
	c-1.42-2.792-1.118-5.508-0.33-8.2c4.085-0.858,21.812-0.862,25.81-0.05c1.021,3.453,1.028,3.996,0.056,7.931
	c-2.263,1.237-4.987,0.087-7.57,1.084c-1.14,1.412-0.831,3.222-0.838,4.917c-0.039,9.099-0.014,18.198-0.035,27.296
	c-0.004,2.058-0.103,4.115-0.154,6.018c-3.285,1.57-3.677,1.597-8.056,0.661c-1.245-1.476-0.841-3.303-0.85-5.008
	c-0.043-8.78-0.02-17.56-0.025-26.339c-0.001-1.596,0.034-3.197-0.076-4.787C230.134,12.603,229.812,11.708,229.562,10.605z"/>
<g>
	<path fill-rule="evenodd" clip-rule="evenodd" fill="#FFFFFF" d="M335.229,107.573c-4.126-1.078-8.319,0.088-12.315-0.738
		c-1.265-2.86-1.265-2.86-0.525-7.616c0.791-0.182,1.677-0.523,2.578-0.57c9.067-0.475,17.592-0.207,21.177,0.659
		c0.699,1.928,0.369,3.955-0.064,5.973c-2.68,12.441-12.938,20.004-26.087,19.105c-22.219-1.519-29.414-24.65-21.092-38.666
		c3.68-6.197,8.948-10.395,16.049-11.981c7.962-1.779,15.578-0.902,22.571,3.56c1.881,1.2,3.689,2.539,5.021,4.847
		c-0.875,0.986-1.764,2.07-2.74,3.069c-0.886,0.905-1.865,1.718-3.021,2.769c-0.942-0.62-1.89-1.132-2.71-1.801
		c-4.059-3.314-8.714-4.504-13.878-4.143c-11.964,0.836-19.145,13.799-13.489,24.403c4.143,7.768,14.188,11.36,22.319,7.989
		c2.6-1.078,4.646-2.789,5.987-5.275C335.211,108.781,335.143,108.262,335.229,107.573z"/>
	<path fill-rule="evenodd" clip-rule="evenodd" fill="#FFFFFF" d="M599.735,82.015c-1.668,2.393-3.598,4.232-5.92,5.968
		c-1.352-0.972-2.605-1.918-3.904-2.803c-4.947-3.369-10.428-4.097-16.053-2.542c-11.328,3.132-15.654,17.122-8.295,26.333
		c4.605,5.765,12.377,8.156,19.426,5.938c3.004-0.945,5.414-2.723,7.037-5.451c0.295-0.493,0.314-1.149,0.506-1.914
		c-4.297-0.974-8.492,0.097-12.473-0.73c-1.213-3.126-1.213-3.126-0.385-7.671c3.799-1.117,7.797-0.437,11.725-0.503
		c3.812-0.065,7.65-0.349,11.344,0.271c1.363,1.269,1.035,2.769,0.859,4.148c-1.096,8.629-7.086,19.004-19.438,20.936
		c-9.406,1.471-17.957-0.499-24.514-7.727c-7.334-8.083-8.953-17.691-4.887-27.674c4.039-9.919,12.025-15.073,22.75-15.618
		c7.439-0.378,14.275,1.429,19.979,6.505C598.297,80.196,598.934,81.1,599.735,82.015z"/>
	<path fill-rule="evenodd" clip-rule="evenodd" fill="#FFFFFF" d="M231.018,74.662c0.669-0.178,1.422-0.563,2.166-0.547
		c5.255,0.111,10.54-0.001,15.756,0.536c10.473,1.078,16.937,6.797,19.371,16.948c1.398,5.832,1.429,11.782-0.681,17.457
		c-2.953,7.943-8.365,13.077-17.229,13.748c-0.954,0.072-1.903,0.255-2.857,0.274c-4.782,0.093-9.564,0.175-14.347,0.189
		c-0.749,0.002-1.5-0.36-2.17-0.534C230.276,118.474,230.271,78.937,231.018,74.662z M239.932,113.877
		c1.317,0.157,2.252,0.365,3.186,0.36c1.912-0.01,3.835-0.023,5.732-0.233c5.579-0.618,8.904-3.906,10.405-9.164
		c1.026-3.595,1.083-7.218,0.19-10.877c-2.082-8.537-10.889-13.118-19.572-9.966c-0.11,0.682-0.341,1.456-0.344,2.231
		c-0.032,8.294-0.038,16.589-0.018,24.884C239.513,111.887,239.74,112.661,239.932,113.877z"/>
	<path fill-rule="evenodd" clip-rule="evenodd" fill="#FFFFFF" d="M39.548,98.101c-1.271-2.561-2.533-4.62-3.349-6.844
		c-1.694-4.617-0.897-8.812,2.803-12.248c4.049-3.758,11.698-3.932,15.958-0.399c4.19,3.475,5.194,9.14,2.323,13.817
		c-0.911,1.485-2.134,2.78-3.227,4.153c-0.78,0.98-1.579,1.944-2.302,2.833c1.771,3.495,3.648,5.723,7.285,8.649
		c0.82-0.518,1.738-1.071,2.627-1.667c0.791-0.53,1.549-1.106,2.45-1.753c2.361,1.271,3.767,3.308,5.216,5.651
		c-1.288,1.511-2.501,2.935-3.809,4.47c1.064,3.232,4.605,4.712,5.867,7.856c-2.525,0.665-7.813,1.131-9.083,0.521
		c-1.407-0.677-2.644-1.71-4.181-2.74c-0.872,0.337-1.876,0.759-2.903,1.117c-2.555,0.891-5.066,2.049-7.699,2.535
		c-2.297,0.424-4.816,0.464-7.099-0.002c-6.535-1.337-10.169-7.058-9.018-13.619c0.571-3.254,2.095-6.005,4.325-8.392
		C36.924,100.766,38.159,99.533,39.548,98.101z M51.556,113.463c-1.752-3.154-4.146-5.571-6.637-7.979
		c-2.055,0.782-3.2,2.286-4.139,3.923c-1.907,3.325-0.142,6.501,3.692,6.665C47.091,116.184,49.395,115.327,51.556,113.463z
		 M46.8,92.584c1.734-1.147,3.127-2.536,3.362-4.783c0.124-1.187-0.272-2.181-1.379-2.803c-1.182-0.663-2.616-0.589-3.464,0.473
		c-0.55,0.689-1.003,1.667-1.021,2.525C44.26,89.797,44.944,91.386,46.8,92.584z"/>
	<path fill-rule="evenodd" clip-rule="evenodd" fill="#FFFFFF" d="M138.432,102.156c-1.295,3.322-0.544,6.864-0.751,10.322
		c-0.2,3.322,0.427,6.691-0.494,10.086c-2.605,1.274-5.207,0.862-8.055,0.343c-0.195-1.222-0.509-2.285-0.512-3.35
		c-0.033-13.892-0.033-27.784-0.002-41.675c0.002-1.068,0.304-2.135,0.479-3.286c2.688-0.802,5.157-0.716,7.923-0.097
		c0.222,1.099,0.586,2.141,0.615,3.193c0.088,3.191,0.017,6.387,0.068,9.579c0.025,1.564,0.185,3.125,0.274,4.537
		c3.496,1.257,11.173,1.39,16.077,0.328c0.164-0.771,0.497-1.664,0.518-2.564c0.077-3.352,0.033-6.706,0.073-10.059
		c0.019-1.566,0.126-3.132,0.195-4.727c2.921-1.084,5.543-0.875,8.444-0.258c0.207,1.093,0.578,2.15,0.581,3.208
		c0.034,14.051,0.025,28.103-0.007,42.155c-0.001,0.916-0.269,1.832-0.426,2.836c-2.832,0.966-5.44,0.745-8.33,0.154
		c-0.167-1.181-0.433-2.242-0.447-3.307c-0.052-4.151-0.004-8.303-0.038-12.455c-0.012-1.563-0.147-3.126-0.219-4.551
		C150.851,101.341,143.5,101.188,138.432,102.156z"/>
	<path fill-rule="evenodd" clip-rule="evenodd" fill="#FFFFFF" d="M419.006,74.421c2.928-0.56,5.758-0.516,8.506-0.096
		c2.062,3.173,8.381,19.016,17.789,44.594c0.422,1.149,0.674,2.362,1,3.531c-3.426,1.091-3.426,1.091-8.369,0.497
		c-2.42-2.524-2.381-6.431-4.496-9.242c-3.48-0.858-15.65-0.912-20.004-0.071c-2.135,2.753-2.357,6.546-4.645,9.405
		c-2.686,0.354-5.326,0.675-8.229-0.332c0.111-0.874,0.061-1.678,0.322-2.362c5.615-14.625,11.262-29.238,16.926-43.845
		C418.088,75.776,418.586,75.138,419.006,74.421z M429.002,103.376c-0.232-3.783-3.412-11.961-5.795-14.717
		c-1.377,1.234-1.645,3.016-2.312,4.559c-0.758,1.748-1.465,3.521-2.09,5.32c-0.555,1.6-1.553,3.11-1.4,4.872
		C421.206,104.64,425.551,104.602,429.002,103.376z"/>
	<path fill-rule="evenodd" clip-rule="evenodd" fill="#FFFFFF" d="M519.397,74.191c2.592-0.017,4.967-0.062,7.34-0.033
		c1.037,0.013,1.801,0.582,2.234,1.536c0.33,0.726,0.65,1.458,0.938,2.203c5.332,13.859,10.664,27.719,15.979,41.584
		c0.34,0.884,0.545,1.819,0.898,3.028c-0.77,0.286-1.445,0.726-2.141,0.76c-2.057,0.098-4.121,0.035-6.055,0.035
		c-2.605-2.954-2.697-6.79-4.703-9.562c-3.543-0.864-13.219-1.046-19.768-0.376c-2.531,2.611-2.473,6.741-4.953,9.637
		c-2.65,0.478-5.314,0.525-8.299-0.061c0.104-0.854,0.049-1.639,0.305-2.306c5.598-14.612,11.229-29.212,16.867-43.808
		C518.325,76.095,518.758,75.42,519.397,74.191z M530.307,103.68c-1.178-3.122-2.02-5.67-3.096-8.114
		c-1.043-2.363-1.357-5.128-3.42-7.129c-2.514,3.934-5.396,11.533-5.805,15.333C521.836,104.588,525.665,104.517,530.307,103.68z"/>
	<path fill-rule="evenodd" clip-rule="evenodd" fill="#FFFFFF" d="M613.077,74.773c4.342-0.953,21.711-0.947,25.854-0.038
		c0.74,2.533,0.648,5.129-0.033,7.992c-5.424,1.009-10.891-0.229-16.395,0.814c-0.879,2.731-0.766,5.317-0.055,8.213
		c5.434,0.963,10.887-0.115,16.371,0.735c0.896,2.624,0.588,5.114,0.342,7.903c-1.086,0.252-2.109,0.662-3.146,0.699
		c-2.871,0.101-5.75,0.016-8.625,0.066c-1.564,0.028-3.125,0.184-4.551,0.273c-1.166,3.733-1.242,7.61-0.283,12.264
		c5.188,1.303,10.664-0.089,16.16,0.891c1.162,2.622,0.656,5.263,0.336,8.149c-1.115,0.202-2.172,0.527-3.238,0.567
		c-11.85,0.439-18.904,0.217-22.652-0.718c-0.125-0.797-0.391-1.706-0.391-2.616c-0.025-14.218-0.021-28.436-0.004-42.654
		C612.768,76.53,612.954,75.747,613.077,74.773z"/>
	<path fill-rule="evenodd" clip-rule="evenodd" fill="#FFFFFF" d="M201.28,114.628c0.99,2.845,1.021,5.434,0.026,8.188
		c-0.815,0.169-1.578,0.463-2.341,0.466c-7.026,0.026-14.051,0.016-21.077-0.033c-0.594-0.004-1.186-0.362-1.822-0.57
		c-0.184-0.69-0.486-1.297-0.487-1.904c-0.037-14.531-0.049-29.062-0.033-43.594c0.001-0.771,0.285-1.542,0.444-2.345
		c2.817-1.354,5.729-0.627,8.545-0.751c2.709-0.12,5.43-0.089,8.143-0.021c2.837,0.071,5.725-0.433,8.608,0.508
		c1.056,2.696,0.99,5.282,0.067,8.01c-2.694,0.984-5.43,0.393-8.098,0.542c-2.676,0.149-5.389-0.218-8.129,0.4
		c-0.993,2.651-0.761,5.135-0.287,7.939c1.022,0.222,2.058,0.614,3.103,0.643c3.191,0.088,6.387,0.002,9.581,0.057
		c1.24,0.021,2.476,0.237,3.725,0.366c1.137,2.682,0.89,5.149,0.34,7.905c-1.095,0.238-2.133,0.626-3.182,0.66
		c-3.032,0.095-6.068,0.018-9.102,0.068c-1.406,0.023-2.887-0.234-4.382,0.919c-0.879,3.555-0.499,7.321-0.159,11.386
		c1.094,0.25,2.124,0.659,3.165,0.693c3.191,0.103,6.387,0.028,9.58,0.094C198.75,114.278,199.986,114.494,201.28,114.628z"/>
	<path fill-rule="evenodd" clip-rule="evenodd" fill="#FFFFFF" d="M377.817,83.48c-2.469-0.217-4.812-0.423-7.311-0.642
		c-0.971-2.764-0.754-5.376-0.186-8.206c0.975-0.196,1.877-0.498,2.791-0.543c8.84-0.44,19.502-0.163,23.086,0.596
		c1.086,2.501,0.834,5.1,0.072,8.059c-2.488,0.252-4.973,0.504-7.363,0.746c-1.406,1.628-0.961,3.463-0.967,5.165
		c-0.039,9.576,0,19.153-0.008,28.729c-0.002,1.726-0.107,3.452-0.166,5.195c-2.924,1.18-5.561,0.82-8.127,0.404
		c-1.48-1.597-1.008-3.438-1.016-5.131c-0.039-9.576,0.01-19.153-0.014-28.729C378.606,87.399,378.885,85.616,377.817,83.48z"/>
	<path fill-rule="evenodd" clip-rule="evenodd" fill="#FFFFFF" d="M112.442,123.166c-2.042,0.068-3.622,0.173-5.2,0.154
		c-0.929-0.012-1.856-0.22-2.831-0.345c-0.994-1.776-0.707-3.563-0.713-5.273c-0.038-9.599-0.007-19.198-0.05-28.797
		c-0.008-1.72,0.381-3.531-0.917-5.435c-2.124-0.176-4.467-0.37-6.934-0.575c-1.426-2.654-0.895-5.283-0.523-7.72
		c1.165-1.305,2.506-1.079,3.753-1.118c13.089-0.405,19.257-0.17,22.47,0.863c0.59,2.462,0.581,4.959-0.015,7.54
		c-2.393,1.418-5.145,0.125-7.603,1.206c-1.301,1.408-0.878,3.254-0.889,4.952c-0.051,8.479-0.021,16.958-0.023,25.438
		c0,1.92,0.022,3.841-0.047,5.759C112.888,120.745,112.665,121.668,112.442,123.166z"/>
	<path fill-rule="evenodd" clip-rule="evenodd" fill="#FFFFFF" d="M464.284,113.939c3.998,1.249,8.254-0.135,12.398,1.004
		c0.979,2.521,0.668,4.997,0.252,7.663c-3.568,1.422-7.256,0.588-10.844,0.682c-3.623,0.094-7.293,0.391-10.883-0.306
		c-1.078-1.859-0.779-3.65-0.783-5.358c-0.031-10.542-0.012-21.085-0.01-31.628c0-2.556-0.027-5.112,0.014-7.667
		c0.018-1.103,0.174-2.203,0.273-3.396c2.812-1.391,5.545-1.033,8.332-0.389c0.867,1.859,0.564,3.637,0.57,5.354
		c0.029,9.584-0.002,19.168,0.023,28.753C463.633,110.371,463.333,112.155,464.284,113.939z"/>
	<path fill-rule="evenodd" clip-rule="evenodd" fill="#FFFFFF" d="M278.045,74.646c3.121-0.902,5.603-0.593,8.31-0.375
		c0.231,1.142,0.566,2.034,0.569,2.926c0.037,14.342,0.036,28.684,0.021,43.026c-0.001,0.769-0.206,1.537-0.328,2.394
		c-2.715,1.188-5.331,0.812-7.791,0.348c-1.397-1.319-1.042-2.833-1.05-4.219c-0.04-7.33-0.026-14.661-0.026-21.991
		c0-5.896-0.009-11.792,0.023-17.688C277.782,77.665,277.941,76.265,278.045,74.646z"/>
	<path fill-rule="evenodd" clip-rule="evenodd" fill="#FFFFFF" d="M363.467,122.911c-2.928,0.575-5.416,0.683-8.213-0.139
		c-0.166-1.229-0.473-2.453-0.475-3.679c-0.023-13.589-0.012-27.177,0.033-40.766c0.004-1.232,0.293-2.463,0.451-3.705
		c2.934-0.931,5.535-0.643,8.195-0.133c0.191,0.922,0.43,1.531,0.43,2.14c0.018,14.707,0.014,29.414-0.01,44.122
		C363.879,121.363,363.653,121.974,363.467,122.911z"/>
</g>
<path fill-rule="evenodd" clip-rule="evenodd" fill="#FFFFFF" d="M558.875,1.675c3.025-0.678,5.483-0.706,8.26-0.026
	c0.131,1.509,0.339,2.897,0.361,4.288c0.388,24.179,0.159,39.881-0.662,43.709c-2.348,0.903-4.802,0.768-7.235,0.125
	c-1.36-1.593-0.966-3.422-0.974-5.127c-0.042-9.578-0.021-19.157-0.021-28.735c0-3.193-0.023-6.386,0.013-9.578
	C558.633,4.911,558.77,3.492,558.875,1.675z"/>
</svg>
