<?xml version="1.0" encoding="utf-8"?>
<!-- Generator: Adobe Illustrator 16.0.0, SVG Export Plug-In . SVG Version: 6.00 Build 0)  -->
<!DOCTYPE svg PUBLIC "-//W3C//DTD SVG 1.1//EN" "http://www.w3.org/Graphics/SVG/1.1/DTD/svg11.dtd">
<svg version="1.1" xmlns="http://www.w3.org/2000/svg" xmlns:xlink="http://www.w3.org/1999/xlink" x="0px" y="0px"
	 width="298.192px" height="46.091px" viewBox="0 0 298.192 46.091" enable-background="new 0 0 298.192 46.091"
	 xml:space="preserve">
<g id="Background" display="none">
	<rect x="-254.22" y="-244.163" display="inline" fill-rule="evenodd" clip-rule="evenodd" width="583" height="303"/>
</g>
<g id="Layer_1_copy">
	<g id="English" display="none">
		<path fill="#FFFFFF" d="M57.679-64.354c0.486,0.522,0.785,0.84,1.079,1.16c5.265,5.733,10.522,11.475,15.812,17.184
			c0.319,0.345,0.905,0.618,1.37,0.624c3.724,0.051,7.448,0.029,11.172,0.025c0.251,0,0.501-0.039,0.899-0.072
			c-6.69-7.256-13.27-14.391-19.856-21.534c5.95-6.608,11.819-13.126,17.834-19.807c-4.279,0-8.275-0.023-12.271,0.03
			c-0.494,0.006-1.119,0.293-1.453,0.66c-4.666,5.125-9.291,10.289-13.93,15.439c-0.165,0.185-0.359,0.344-0.613,0.584
			c0-22.32,0-44.499,0-66.839c0.41,0.34,0.692,0.568,0.968,0.805c6.708,5.774,16.238,6.007,23.176,0.497
			c6.007-4.772,8.569-11.111,8.322-18.696c-0.145-4.425-1.188-8.568-3.68-12.282c-6.219-9.269-18.232-11.407-26.896-4.785
			c-0.611,0.467-1.192,0.974-1.986,1.626c0-2.888,0-5.558,0-8.201c-3.586,0-7.018,0-10.474,0c0,44.226,0,88.376,0,132.495
			c3.55,0,7.015,0,10.525,0C57.679-51.703,57.679-57.881,57.679-64.354z M109.176-132.743c0-0.484,0-0.888,0-1.291
			c0-6.048-0.091-12.098,0.045-18.143c0.055-2.467,0.468-4.95,0.971-7.374c0.364-1.759,1.454-3.222,2.897-4.358
			c4.669-3.676,10.501-1.637,11.578,4.19c0.486,2.632,0.572,5.36,0.611,8.047c0.086,5.91,0.026,11.822,0.026,17.734
			c0,0.393,0,0.786,0,1.177c3.557,0,6.957,0,10.457,0c0-0.427,0-0.794,0-1.162c0-5.501-0.045-11.003,0.021-16.504
			c0.029-2.452,0.114-4.927,0.474-7.346c0.545-3.665,2.437-6.454,6.153-7.572c3.392-1.021,7.587-0.056,8.58,4.842
			c0.276,1.366,0.555,2.763,0.567,4.147c0.066,7.448,0.049,14.897,0.06,22.346c0.001,0.4,0,0.801,0,1.246c3.573,0,7.036,0,10.595,0
			c0-0.463,0-0.865,0-1.268c0-7.449,0.029-14.898-0.018-22.347c-0.016-2.317-0.162-4.641-0.383-6.949
			c-0.499-5.234-3.134-9.05-8.109-10.821c-5.856-2.085-11.385-1.162-16.26,2.798c-1.201,0.976-2.188,2.215-3.316,3.38
			c-2.573-4.507-6.389-7.08-11.739-7.18c-5.165-0.098-9.472,1.827-13.244,5.72c0-1.761,0-3.202,0-4.606c-3.562,0-6.99,0-10.398,0
			c0,13.804,0,27.527,0,41.292C102.206-132.743,105.611-132.743,109.176-132.743z M233.582-49.608
			c0.494,0.412,0.803,0.662,1.103,0.921c4.121,3.556,8.896,4.903,14.267,4.198c5.72-0.75,10.033-3.832,13.243-8.429
			c4.464-6.392,5.013-13.521,2.805-20.757c-4.478-14.677-21.012-18.392-30.868-9.187c-0.129,0.121-0.302,0.194-0.581,0.369
			c0-1.506,0-2.858,0-4.241c-3.451,0-6.82,0-10.25,0c0,18.844,0,37.647,0,56.482c3.442,0,6.835,0,10.282,0
			C233.582-36.661,233.582-43.006,233.582-49.608z M-231.821-204.387c0,0.434,0,0.805,0,1.176c0,21.87,0.012,43.738-0.02,65.608
			c-0.003,1.991,0.875,3.335,2.63,3.95c1.457,0.51,3.04,0.889,4.573,0.911c6.696,0.096,13.394,0.05,20.091,0.038
			c3.462-0.007,6.881-0.413,10.244-1.246c10.948-2.71,16.847-10.243,16.848-21.504c0-8.542,0.011-17.085-0.011-25.628
			c-0.004-1.465-0.052-2.942-0.244-4.392c-0.933-7.05-4.388-12.387-10.833-15.623c-4.513-2.266-9.375-3.223-14.355-3.295
			c-9.497-0.136-18.998-0.056-28.497-0.063C-231.492-204.456-231.589-204.425-231.821-204.387z M163.441-45.412
			c0-0.452,0-0.853,0-1.253c0-8.301,0.008-16.601-0.007-24.901c-0.003-1.329-0.059-2.662-0.171-3.987
			c-0.598-7.034-6.283-12.177-13.357-12.267c-4.464-0.057-8.237,1.595-11.69,4.23c-0.336,0.257-0.674,0.512-1.177,0.893
			c0-6.817,0-13.393,0-19.989c-3.477,0-6.865,0-10.244,0c0,19.128,0,38.178,0,57.249c3.443,0,6.833,0,10.266,0
			c0-0.522-0.003-0.965,0.001-1.408c0.057-7.137,0.062-14.274,0.194-21.409c0.058-3.109,1.141-5.899,3.492-8.041
			c2.197-2.001,4.8-2.543,7.622-1.67c2.671,0.827,3.868,2.948,4.224,5.526c0.311,2.258,0.479,4.551,0.504,6.83
			c0.065,6.318,0.022,12.639,0.022,18.958c0,0.402,0,0.805,0,1.239C156.601-45.412,159.965-45.412,163.441-45.412z
			 M-123.155-150.311c0.131-0.153,0.17-0.177,0.171-0.204c0.022-0.512,0.051-1.023,0.056-1.535
			c0.045-5.096-0.977-9.898-3.909-14.175c-6.177-9.012-17.449-10.612-25.582-7.711c-14.787,5.274-16.963,22.478-10.962,32.216
			c3.888,6.31,9.7,9.536,17.036,9.999c4.623,0.292,9.145-0.211,13.341-2.392c2.958-1.537,5.355-3.701,7.301-6.526
			c-2.845-1.315-5.592-2.599-8.359-3.835c-0.216-0.097-0.66,0.043-0.859,0.225c-3.417,3.101-7.415,4.17-11.942,3.557
			c-4.912-0.666-9.015-4.835-9.354-9.618C-145.183-150.311-134.151-150.311-123.155-150.311z M-29.428-150.339
			c0-0.708-0.002-1.253,0-1.799c0.019-5.059-0.999-9.828-3.908-14.075c-6.176-9.017-17.44-10.623-25.578-7.726
			c-14.788,5.264-16.976,22.461-10.981,32.209c3.59,5.838,8.887,9.13,15.707,9.871c5.075,0.551,10.029,0.118,14.663-2.25
			c2.972-1.518,5.362-3.702,7.318-6.527c-2.837-1.312-5.584-2.595-8.351-3.833c-0.218-0.098-0.664,0.031-0.862,0.211
			c-3.414,3.104-7.411,4.176-11.939,3.567c-4.917-0.661-8.94-4.735-9.383-9.648C-51.676-150.339-40.619-150.339-29.428-150.339z
			 M213.469-150.319c0.264-5.231-0.372-10.158-3.049-14.617c-3.535-5.889-8.783-9.215-15.6-10.021
			c-5.562-0.658-10.872,0.078-15.539,3.4c-7.152,5.091-9.886,12.232-9.12,20.783c0.675,7.534,4.464,13.144,11.127,16.72
			c4.266,2.29,8.911,2.662,13.646,2.277c3.624-0.295,7.049-1.253,10.121-3.267c2.24-1.469,4.139-3.287,5.687-5.596
			c-2.729-1.263-5.364-2.463-7.979-3.707c-0.576-0.275-0.929-0.217-1.42,0.222c-3.718,3.327-8.071,4.274-12.873,3.197
			c-4.449-0.998-8.026-5.124-8.221-9.391C191.284-150.319,202.315-150.319,213.469-150.319z M38.921-153.376
			c0.1-12.509-10.122-21.386-21.311-21.811c-11.321-0.43-21.903,9.25-22.174,21.229c-0.278,12.272,9.834,22.174,21.033,22.331
			C29.749-131.441,39.014-141.896,38.921-153.376z M214.836-66.087c0.071-12.507-10.181-21.36-21.365-21.759
			c-11.26-0.402-21.873,9.249-22.121,21.285c-0.251,12.213,9.839,22.145,21.089,22.277
			C205.673-44.126,214.957-54.568,214.836-66.087z M13.907-66.009C14.02-78.583,3.717-87.46-7.481-87.847
			c-11.235-0.388-21.862,9.25-22.098,21.311c-0.238,12.172,9.802,22.083,21.01,22.251C4.733-44.086,13.989-54.549,13.907-66.009z
			 M232.194-132.748c0-0.559-0.003-1.002,0.001-1.446c0.057-7.068,0.05-14.138,0.198-21.204c0.07-3.358,1.205-6.384,3.896-8.587
			c4.536-3.713,10.682-1.44,11.437,4.342c0.437,3.336,0.456,6.737,0.507,10.111c0.077,5.191,0.021,10.384,0.021,15.577
			c0,0.398,0,0.796,0,1.186c3.508,0,6.872,0,10.321,0c0-0.469,0-0.874,0-1.277c0-8.438,0.006-16.875-0.006-25.312
			c-0.002-1.057-0.066-2.114-0.14-3.169c-0.639-9.288-8.765-13.517-16.114-12.491c-3.467,0.484-6.374,2.12-9.076,4.222
			c-0.298,0.232-0.609,0.446-1.086,0.794c0-1.519,0-2.771,0-4.049c-3.47,0-6.863,0-10.269,0c0,13.808,0,27.552,0,41.306
			C225.335-132.748,228.707-132.748,232.194-132.748z M-105.649-102.252c-0.507,1.715-0.876,3.444,0.347,5.28
			c-2.003,0.355-1.828,1.882-2.111,3.183c-1.065,4.9-3.454,9.364-4.466,14.327c-0.873,4.276-2.665,8.364-4.02,12.545
			c-0.163,0.503-0.256,1.093-0.162,1.603c0.192,1.046-0.033,1.954-0.561,2.837c-0.134,0.224-0.28,0.499-0.267,0.743
			c0.15,2.749,0.331,5.497,0.492,8.066c4.385-0.293,8.663-0.579,12.755-0.854c-0.04-1.473-0.293-3.018-0.084-4.498
			c0.691-4.89,2.42-9.507,4.048-14.14c1.821-5.181,3.7-10.344,4.706-15.764c0.292-1.57,0.136-3.271,0.658-4.743
			c1.805-5.085,1.164-9.867-1.317-14.517c-2.039-3.82-4.886-6.791-8.897-8.453c-0.141,0.435-0.271,0.84-0.401,1.245
			c-0.087-0.004-0.174-0.009-0.26-0.013c-0.285-0.629-0.57-1.258-0.854-1.884c-1.27,0.561-1.602,1.557-1.595,2.784
			c-0.242-0.2-0.378-0.379-0.501-0.566c-1.186-1.804-1.591-2.097-3.621-1.406c-1.885,0.642-3.656,1.629-5.449,2.521
			c-0.465,0.231-0.824,0.674-1.269,1.052c0.339,0.24,0.578,0.409,0.817,0.579c-0.073,0.114-0.146,0.227-0.219,0.341
			c-0.508-0.299-1.017-0.598-1.653-0.972c-1.662,2.015-3.417,4.14-5.184,6.281c0.375,0.027,0.617,0.044,0.859,0.062
			c-0.098,0.22-0.171,0.457-0.3,0.658c-0.184,0.286-0.409,0.546-0.648,0.859c-0.268-0.289-0.405-0.436-0.529-0.57
			c-0.259,0.421-0.505,0.829-0.759,1.232c-1.603,2.546-2.694,5.271-3.038,8.287c-0.146,1.286-0.345,2.58-0.678,3.828
			c-0.614,2.304,0.26,4.329,0.875,6.463c0.479-0.108,0.818-0.184,1.179-0.265c0.172,0.976,0.33,1.871,0.452,2.568
			c0.612-0.223,1.161-0.423,1.709-0.623c0.013,0.635,0.026,1.27,0.043,2.094c0.9-0.094,2.251,0.17,2.885-0.384
			c1.494-1.306,2.708-2.957,3.894-4.573c0.288-0.394,0.239-1.309-0.023-1.779c-0.695-1.245-1.685-2.325-2.382-3.569
			c-0.654-1.168-1.337-2.418-1.561-3.709c-0.446-2.578-0.594-5.208-0.837-7.818c-0.02-0.213,0.14-0.604,0.28-0.636
			c0.285-0.065,0.646-0.008,0.914,0.125c0.211,0.104,0.328,0.397,0.505,0.63c0.69-1.693,1.353-3.319,2.045-5.02
			c1.102,0.778,1.719,0.256,2.218-0.537c0.949-1.508,2.273-2.48,4.053-2.883c0-0.255,0-0.507,0-0.806
			c2.124-0.236,4.063,0.033,5.667,1.524c1.685,1.566,2.759,3.454,2.956,5.787c0.019,0.223,0.043,0.485,0.168,0.651
			c0.427,0.569,0.9,1.104,1.356,1.652c-0.119-0.003-0.238-0.005-0.357-0.008c-0.246,0.74-0.492,1.48-0.814,2.449
			C-104.924-101.389-105.281-101.814-105.649-102.252z M-61.927-115.771c-0.727-0.381-1.243-0.86-1.79-0.899
			c-1.529-0.108-3.077-0.119-4.606-0.008c-1.385,0.1-2.778,0.485-3.391,1.911c-1.088,2.532-2.247,5.058-3.042,7.688
			c-1.565,5.186-2.89,10.444-4.34,15.666c-0.454,1.635-0.99,3.248-1.476,4.826c0.486,0.312,0.896,0.575,1.362,0.874
			c-2.079,1.394-2.701,3.502-3.332,5.602c-1.038,3.457-2.049,6.923-3.106,10.375c-0.375,1.226-0.851,2.422-1.271,3.606
			c0.36,0.218,0.616,0.374,0.889,0.54c-2.274,3.502-4.526,6.97-6.771,10.425c1.588,0.923,2.823,0.901,4.041-0.418
			c1.236-1.34,2.67-2.497,4.203-3.904c0.143,1.78,0.271,3.388,0.405,5.062c2.892,0.228,5.844,0.459,8.912,0.699
			c-0.193-0.483-0.297-0.744-0.517-1.294c1.637,0.314,3.044,0.586,4.472,0.86c0-3.5,0.038-7.152-0.023-10.804
			c-0.018-1.09-0.314-2.176-0.482-3.263c-0.09,0-0.18,0-0.27,0.001c0.199-0.218,0.398-0.436,0.605-0.662
			c0.185,0.216,0.327,0.38,0.478,0.557c0.241-1.447,0.471-2.836,0.698-4.201c-0.451-0.113-0.838-0.21-1.309-0.327
			c0.597-0.627,1.5-0.378,1.764-1.391c3.503-13.423,7.072-26.829,10.621-40.239c0.187-0.707,0.345-1.421,0.529-2.188
			c-1.22,0-2.306,0-3.439,0C-62.057-116.413-62.008-116.174-61.927-115.771z M299.859-80.88c-0.102-0.185-0.14-0.281-0.199-0.361
			c-4.167-5.547-11.84-7.985-18.432-5.858c-6.298,2.032-9.836,8.271-8.029,14.223c0.959,3.159,3.078,5.48,5.779,7.198
			c2.38,1.515,4.966,2.703,7.409,4.125c1.227,0.714,2.456,1.504,3.473,2.48c1.487,1.43,1.211,3.277-0.514,4.421
			c-0.472,0.313-1.032,0.533-1.584,0.678c-1.817,0.478-3.57,0.094-5.131-0.813c-1.781-1.034-3.438-2.284-5.229-3.495
			c-1.95,2.145-4.055,4.458-6.162,6.776c0.111,0.188,0.169,0.311,0.248,0.416c6.024,8.002,16.698,8.043,22.635,4.86
			c7.682-4.117,8.879-14.664,2.228-20.288c-1.726-1.46-3.774-2.562-5.752-3.691c-2.1-1.199-4.309-2.206-6.437-3.359
			c-0.971-0.527-1.729-1.331-1.5-2.555c0.236-1.27,1.208-1.821,2.387-2.082c2.062-0.458,3.845,0.258,5.489,1.382
			c1.028,0.703,1.967,1.536,2.758,2.162C295.523-76.771,297.699-78.833,299.859-80.88z M89.171-51.504
			c6.111,8.82,18.39,8.604,24.146,4.492c6.906-4.933,7.139-14.878,0.387-20.006c-1.673-1.271-3.551-2.289-5.394-3.316
			c-2.024-1.128-4.134-2.101-6.172-3.205c-0.966-0.523-1.711-1.3-1.56-2.536c0.13-1.069,1.063-1.841,2.454-2.14
			c1.903-0.409,3.592,0.177,5.135,1.204c1.125,0.749,2.157,1.638,2.992,2.279c2.221-2.089,4.42-4.158,6.606-6.215
			c-4.303-6.177-13.23-8.658-19.985-5.611c-5.484,2.473-8.285,8.175-6.662,13.632c0.942,3.168,3.056,5.494,5.749,7.22
			c2.375,1.522,4.965,2.705,7.405,4.131c1.255,0.732,2.515,1.54,3.552,2.542c1.447,1.399,1.205,3.275-0.516,4.331
			c-0.806,0.494-1.831,0.816-2.775,0.864c-2.671,0.137-4.852-1.18-6.891-2.725c-0.749-0.567-1.41-1.253-2.138-1.907
			C93.379-56.131,91.293-53.837,89.171-51.504z M-98.032-149.795c-0.228-0.514-0.382-0.853-0.529-1.195
			c-3.182-7.427-6.357-14.856-9.561-22.274c-0.146-0.338-0.532-0.81-0.813-0.815c-3.342-0.057-6.685-0.037-10.1-0.037
			c0.066,0.23,0.096,0.394,0.159,0.542c5.72,13.425,11.438,26.851,17.19,40.262c0.125,0.29,0.637,0.57,0.978,0.583
			c1.638,0.061,3.28-0.015,4.917,0.045c0.822,0.029,1.235-0.2,1.578-1.011c5.548-13.127,11.139-26.235,16.717-39.349
			c0.136-0.32,0.235-0.656,0.373-1.043c-3.597,0-7.042,0-10.533,0C-91.087-166.054-94.515-158.03-98.032-149.795z M280.138-174.117
			c0-5.124,0-10.12,0-15.13c-3.497,0-6.868,0-10.367,0c0,5.041,0,10.041,0,15.13c-1.819,0-3.515,0-5.256,0c0,2.978,0,5.864,0,8.837
			c1.761,0,3.459,0,5.274,0c0,10.896,0,21.705,0,32.509c3.521,0,6.92,0,10.401,0c0-10.851,0-21.632,0-32.536
			c2.073,0,4.065,0,6.048,0c0-3.003,0-5.881,0-8.81C284.215-174.117,282.273-174.117,280.138-174.117z M-22.212-190.061
			c0,19.152,0,38.226,0,57.278c3.498,0,6.925,0,10.335,0c0-19.131,0-38.18,0-57.278C-15.331-190.061-18.733-190.061-22.212-190.061z
			 M28.803-86.729c-3.055,0-5.946,0-8.894,0c0,13.793,0,27.54,0,41.308c3.457,0,6.854,0,10.284,0
			c0.019-0.225,0.044-0.39,0.044-0.555c-0.009-5.635-0.066-11.27-0.011-16.903c0.028-2.896,0.176-5.797,0.417-8.684
			c0.177-2.122,0.74-4.166,2.195-5.844c1.279-1.475,2.757-1.88,4.595-1.236c0.476,0.167,0.941,0.36,1.476,0.566
			c0.563-1.507,1.102-2.938,1.633-4.372c0.53-1.427,1.055-2.855,1.596-4.321c-2.516-1.199-4.984-1.383-7.528-0.49
			c-2.558,0.898-4.306,2.73-5.806,4.95C28.803-83.758,28.803-85.208,28.803-86.729z M-56.758-53.909
			c3.396-2.902,6.326-6.139,8.799-9.766c6.534-9.582,10.648-20.136,12.033-31.642c0.495-4.108,0.539-8.345,0.14-12.46
			c-0.269-2.772-1.691-5.43-2.565-8.149c-0.233-0.725-0.668-0.937-1.376-0.841c-3.358,0.456-6.373,1.711-8.986,3.876
			c-0.385,0.32-0.698,0.755-0.963,1.187c-0.561,0.917-0.715,1.869-0.272,2.921c0.688,1.633,1.271,3.31,1.939,4.952
			c2.044,5.03,3.563,10.186,3.575,15.667c0.016,7.208-2.274,13.816-5.471,20.155c-2.673,5.301-6.144,9.992-11.03,13.847
			C-59.384-54.47-57.976-55.62-56.758-53.909z M-114.274-50.531c0.214,0.454,0.344,0.757,0.497,1.049
			c2.258,4.315,6.422,5.663,10.605,5.031c4.042-0.611,7.272-2.946,10.301-5.549c0.164-0.141,0.26-0.359,0.49-0.689
			c-0.534,0-0.898,0.012-1.261-0.002c-3.167-0.111-6.333-0.224-9.5-0.344c-1.087-0.042-2.257-0.471-2.919,0.737
			c-0.493-0.328-0.889-0.818-1.257-0.799C-109.589-50.977-111.854-50.741-114.274-50.531z M-69.824-46.362
			c-0.167,0.028-0.334,0.058-0.501,0.087c-0.183-1.005-0.433-2.003-0.529-3.016c-0.118-1.229-0.212-1.402-1.466-1.394
			c-2.354,0.019-4.708,0.071-7.062,0.098c-1.241,0.015-2.483,0.003-3.724,0.003c-0.07,0.14-0.14,0.278-0.209,0.418
			c1.832,1.802,3.655,3.611,5.506,5.394c0.229,0.221,0.604,0.403,0.915,0.409c2.039,0.036,4.078,0.019,6.102,0.019
			c0.092-0.522,0.166-0.939,0.27-1.53c1.091,1.375,2.313,1.1,3.378,0.417c2.178-1.394,4.268-2.924,6.385-4.41
			c0.179-0.126,0.293-0.345,0.438-0.521c-0.016-0.102-0.032-0.203-0.048-0.305c-2.721,0-5.441-0.017-8.162,0.008
			c-1.289,0.012-1.567,0.321-1.513,1.602C-70.006-48.175-69.9-47.27-69.824-46.362z M-83.784-52.459
			c4.214,0.169,8.317,0.334,12.454,0.5c0-0.373,0-0.63,0-0.957c-4.143-0.185-8.245-0.368-12.403-0.553
			C-83.752-53.112-83.765-52.854-83.784-52.459z M-57.441-52.845c-0.014-0.102-0.027-0.203-0.04-0.305
			c-1.489,0-2.984,0.082-4.465-0.027c-1.095-0.08-1.764,0.346-2.21,1.479C-61.917-52.08-59.679-52.462-57.441-52.845z
			 M-90.217-53.159c-1.823,0.218-3.514,0.42-5.205,0.622c0.834,0.341,1.658,0.538,2.488,0.702
			C-91.334-51.517-91.262-51.556-90.217-53.159z M-109.007-52.981c0.087,1.313,1.155,1.062,1.781,1.52
			c0.118-0.303,0.208-0.533,0.325-0.834C-107.582-52.517-108.187-52.714-109.007-52.981z M-111.344-51.417
			c0.426-1.249-0.643-1.065-1.211-1.561C-112.888-51.737-111.946-51.815-111.344-51.417z M-249.864,61.052
			c0-92.673,0-185.346,0-278.02c191.634,0,383.268,0,574.901,0c0,92.673,0,185.347,0,278.02
			C133.404,61.052-58.23,61.052-249.864,61.052z M73.764,37.531c4.492-0.371,9.263,1.004,13.047-2.606
			c2.612,2.266,5.726,2.755,8.949,2.741c6.66-0.027,13.318-0.147,19.978-0.181c2.307-0.011,4.489-0.327,6.37-1.843
			c1.566,1.291,3.388,1.803,5.339,1.82c3.928,0.034,7.856,0.046,11.784,0.001c5.172-0.06,8.249-3.218,8.251-8.388
			c0.003-5.364,0.001-10.728,0.001-16.092c0-0.361,0-0.722,0-1.072c-1.969,0-3.796,0-5.707,0c0,0.436,0,0.805,0,1.174
			c0,4.681,0.001,9.361-0.003,14.042c0,0.58,0,1.164-0.059,1.74c-0.255,2.531-1.464,4.05-3.819,4.159
			c-3.197,0.149-6.419,0.105-9.612-0.108c-2.11-0.142-3.419-1.95-3.394-3.798c0.076-5.326-0.027-10.655-0.061-15.984
			c-0.002-0.402,0-0.805,0-1.229c-1.943,0-3.77,0-5.674,0c0,0.432,0,0.801,0,1.171c0,4.202,0.03,8.404-0.017,12.606
			c-0.017,1.458-0.098,2.939-0.382,4.363c-0.336,1.686-1.441,2.844-3.229,2.943c-2.029,0.113-4.069,0.026-5.914,0.026
			c0.425-1.878,1.071-3.837,1.266-5.839c0.198-2.055,0.1-4.168-0.126-6.227c-0.583-5.31-3.263-8.184-8.493-9.011
			c-3.555-0.562-7.156-0.559-10.704,0.16c-3.571,0.724-6.065,2.773-7.012,6.372c-0.422,1.604-0.637,3.274-0.804,4.929
			c-0.168,1.659-0.059,3.349-0.256,5.003c-0.254,2.13-1.178,4-3.471,4.429c-1.979,0.371-4.037,0.312-6.137,0.446
			c0-0.618,0-0.989,0-1.359c0-5.091,0.013-10.182-0.006-15.272c-0.011-3.007-1.544-4.721-4.425-4.776
			c-3.825-0.073-7.655-0.1-11.479,0.017c-4.019,0.122-7.183,2.707-8.085,6.634c-1.025,4.463-0.924,8.967,0.333,13.375
			c1.059,3.714,3.644,5.519,7.635,5.569c3.006,0.038,6.012,0.028,9.019,0.04c0.363,0.001,0.727,0,1.096,0
			c-0.139,2.154-1.582,3.686-3.914,3.825c-3.336,0.201-6.686,0.176-10.03,0.238c-0.946,0.018-1.895,0.003-2.864,0.003
			c0,1.486,0,2.861,0,4.306c3.791,0,7.51,0.017,11.229-0.01c1.226-0.009,2.462-0.048,3.674-0.216
			c4.047-0.561,6.421-2.576,7.319-6.138C73.537,38.891,73.627,38.247,73.764,37.531z M200.961,3.687c0,0.451,0,0.82,0,1.189
			c0,5.534-0.001,11.068,0,16.603c0,2.699-0.034,5.398,0.01,8.097c0.047,2.889,1.158,5.246,3.709,6.766
			c1.478,0.88,3.129,1.131,4.825,1.132c7.618,0.002,15.236,0.001,22.854,0.001c4.646,0,9.292,0.021,13.938-0.007
			c4.324-0.026,7.003-1.978,7.887-5.731c0.186-0.79,0.273-1.62,0.276-2.433c0.024-5.432,0.013-10.863,0.013-16.295
			c0-0.363,0-0.726,0-1.106c-1.967,0-3.794,0-5.707,0c0,0.424,0,0.792,0,1.16c0,5.192,0.01,10.386-0.005,15.578
			c-0.006,2.313-0.979,4.028-2.752,4.259c-2.277,0.297-4.6,0.256-6.998,0.365c0-7.259,0-14.287,0-21.363c-1.912,0-3.736,0-5.682,0
			c0,7.104,0,14.152,0,21.185c-3.311,0-6.5,0-9.775,0c0-7.104,0-14.126,0-21.176c-1.911,0-3.733,0-5.647,0
			c0,7.089,0,14.114,0,21.259c-1.79,0-3.489,0.001-5.188,0c-4.74-0.004-6.083-1.348-6.084-6.094c-0.001-7.38,0-14.759,0-22.138
			c0-0.402,0-0.805,0-1.25C204.719,3.687,202.919,3.687,200.961,3.687z M24.012,33.127c0-8.098,0-16.111,0-24.182
			c-1.945,0-3.8,0-5.751,0c0,0.982,0,1.893,0,2.899c-0.463,0-0.83,0-1.196,0c-2.46,0-4.92-0.031-7.379,0.007
			c-4.864,0.075-8.251,2.845-9.191,7.577c-0.707,3.558-0.648,7.142,0.131,10.677c1.137,5.156,3.98,7.368,9.269,7.368
			c6.969,0,13.938,0,20.907,0c2.254,0,4.51,0.021,6.764-0.005c4.921-0.058,8.063-2.871,8.22-7.76
			c0.187-5.835,0.072-11.68,0.083-17.52c0.001-0.095-0.062-0.189-0.091-0.273c-1.846,0-3.673,0-5.56,0
			c0,3.996,0.018,7.922-0.008,11.847c-0.012,1.773-0.035,3.553-0.181,5.319c-0.205,2.481-1.625,3.952-4.079,4.018
			C32.029,33.202,28.103,33.127,24.012,33.127z M275.433,45.788c0.167,0.046,0.23,0.078,0.294,0.078
			c3.69,0.006,7.38,0.026,11.07,0.004c1.191-0.008,2.394-0.051,3.571-0.216c4.085-0.573,6.659-2.785,7.354-6.35
			c0.254-1.301,0.426-2.64,0.436-3.963c0.044-6.286,0.039-12.574,0.012-18.86c-0.014-2.938-1.632-4.579-4.579-4.621
			c-3.689-0.052-7.382-0.071-11.07,0.004c-4.2,0.086-7.396,2.715-8.388,6.811c-0.239,0.99-0.383,2.016-0.449,3.032
			c-0.244,3.732-0.209,7.449,1.128,11.018c0.984,2.625,2.883,4.327,5.673,4.537c3.433,0.258,6.891,0.181,10.338,0.245
			c0.467,0.009,0.934,0.001,1.401,0.001c-0.039,2.097-1.534,3.701-3.877,3.822c-3.85,0.198-7.712,0.175-11.568,0.243
			c-0.434,0.008-0.867,0.001-1.346,0.001C275.433,43.041,275.433,44.394,275.433,45.788z M161.099,17.444
			c0.13,4.049-0.009,8.028,0.45,11.937c0.58,4.935,3.813,7.952,8.324,8.041c6.418,0.125,12.841,0.108,19.26-0.006
			c3.293-0.059,5.744-1.731,7.25-4.712c0.931-1.84,1.266-3.817,1.288-5.844c0.045-4.132,0.032-8.265,0.043-12.396
			c0.002-0.842,0.001-1.684,0.001-2.541c-2.004,0-3.925,0-5.912,0c0,0.311,0,0.545,0,0.78c-0.001,4.201,0.016,8.401-0.012,12.603
			c-0.007,1.156-0.068,2.324-0.238,3.467c-0.373,2.503-1.819,4.086-4.314,4.175c-4.977,0.177-9.967,0.258-14.94,0.077
			c-3.301-0.12-4.714-1.654-5.005-4.962c-0.214-2.44-0.108-4.91-0.137-7.367c-0.013-1.075-0.002-2.151-0.002-3.251
			C165.128,17.444,163.257,17.444,161.099,17.444z M265.203,11.874c0,0.468,0,0.837,0,1.206c0,3.346,0.005,6.691-0.001,10.037
			c-0.007,4.472,0.021,8.944-0.047,13.415c-0.045,2.963-1.613,4.664-4.563,5.098c-0.968,0.142-1.956,0.147-2.985,0.219
			c0,1.407,0,2.785,0,4.197c1.479,0,2.913,0.113,4.324-0.02c6.242-0.587,8.98-3.64,8.98-9.897c0-7.715,0-15.431,0-23.146
			c0-0.36,0-0.721,0-1.109C268.966,11.874,267.164,11.874,265.203,11.874z M245.536,0.009c-1.878,0-3.701,0-5.548,0
			c0,1.5,0,2.941,0,4.38c1.89,0,3.708,0,5.548,0C245.536,2.892,245.536,1.471,245.536,0.009z M134.312,3.475
			c0,1.534,0,2.955,0,4.419c1.877,0,3.699,0,5.549,0c0-1.498,0-2.94,0-4.419C137.991,3.475,136.191,3.475,134.312,3.475z
			 M147.47,3.474c-1.897,0-3.697,0-5.562,0c0,1.48,0,2.931,0,4.418c1.87,0,3.693,0,5.562,0C147.47,6.415,147.47,4.996,147.47,3.474z
			 M179.864,3.494c-1.87,0-3.693,0-5.56,0c0,1.491,0,2.941,0,4.386c1.893,0,3.719,0,5.56,0C179.864,6.39,179.864,4.97,179.864,3.494
			z M187.457,3.477c-1.913,0-3.712,0-5.572,0c0,1.489,0,2.939,0,4.411c1.883,0,3.707,0,5.572,0
			C187.457,6.406,187.457,4.986,187.457,3.477z M124.736,3.703c-1.913,0-3.733,0-5.572,0c0,1.506,0,2.95,0,4.373
			c1.904,0,3.728,0,5.572,0C124.736,6.602,124.736,5.205,124.736,3.703z M39.441,45.843c1.909,0,3.709,0,5.569,0
			c0-1.488,0-2.938,0-4.413c-1.88,0-3.704,0-5.569,0C39.441,42.91,39.441,44.33,39.441,45.843z M232.251,4.396
			c1.917,0,3.766,0,5.604,0c0-1.509,0-2.948,0-4.393c-1.901,0-3.725,0-5.604,0C232.251,1.467,232.251,2.881,232.251,4.396z
			 M230.252,4.426c0-1.512,0-2.955,0-4.419c-1.887,0-3.711,0-5.576,0c0,1.497,0,2.939,0,4.419
			C226.546,4.426,228.347,4.426,230.252,4.426z M14.859,0.004c0,1.493,0,2.936,0,4.392c1.885,0,3.704,0,5.521,0
			c0-1.511,0-2.952,0-4.392C18.496,0.004,16.699,0.004,14.859,0.004z M7.218,0c0,1.52,0,2.965,0,4.385c1.905,0,3.729,0,5.536,0
			c0-1.499,0-2.919,0-4.385C10.899,0,9.102,0,7.218,0z M31.875,41.417c0,1.539,0,2.957,0,4.397c1.882,0,3.702,0,5.527,0
			c0-1.509,0-2.951,0-4.397C35.52,41.417,33.722,41.417,31.875,41.417z"/>
		<path display="inline" fill-rule="evenodd" clip-rule="evenodd" fill="#FFFFFF" d="M57.679-64.354c0,6.474,0,12.651,0,18.912
			c-3.511,0-6.976,0-10.525,0c0-44.119,0-88.269,0-132.495c3.456,0,6.888,0,10.474,0c0,2.644,0,5.313,0,8.201
			c0.794-0.652,1.375-1.159,1.986-1.626c8.663-6.622,20.677-4.483,26.896,4.785c2.492,3.714,3.535,7.857,3.68,12.282
			c0.247,7.585-2.315,13.924-8.322,18.696c-6.938,5.511-16.468,5.278-23.176-0.497c-0.275-0.237-0.558-0.464-0.968-0.805
			c0,22.34,0,44.519,0,66.839c0.254-0.24,0.448-0.399,0.613-0.584c4.639-5.15,9.264-10.313,13.93-15.439
			c0.334-0.367,0.959-0.654,1.453-0.66c3.995-0.053,7.991-0.03,12.271-0.03c-6.015,6.68-11.884,13.198-17.834,19.807
			c6.587,7.144,13.166,14.278,19.856,21.534c-0.398,0.033-0.648,0.072-0.899,0.072c-3.724,0.004-7.448,0.025-11.172-0.025
			c-0.465-0.006-1.051-0.279-1.37-0.624c-5.29-5.709-10.548-11.45-15.812-17.184C58.464-63.515,58.166-63.832,57.679-64.354z
			 M79.821-153.876c-0.04-0.414-0.067-1.238-0.21-2.042c-0.812-4.57-3.217-7.964-7.76-9.274c-4.647-1.34-8.835-0.254-11.994,3.589
			c-2.688,3.269-3.104,7.162-2.331,11.142c1.821,9.37,11.69,11.456,17.29,7.365C78.317-145.652,79.771-149.232,79.821-153.876z"/>
		<path display="inline" fill-rule="evenodd" clip-rule="evenodd" fill="#FFFFFF" d="M109.176-132.743c-3.565,0-6.971,0-10.433,0
			c0-13.765,0-27.488,0-41.292c3.408,0,6.837,0,10.398,0c0,1.405,0,2.846,0,4.606c3.772-3.894,8.079-5.818,13.244-5.72
			c5.351,0.101,9.166,2.673,11.739,7.18c1.129-1.165,2.115-2.404,3.316-3.38c4.875-3.96,10.403-4.883,16.26-2.798
			c4.976,1.771,7.61,5.587,8.109,10.821c0.221,2.308,0.367,4.631,0.383,6.949c0.047,7.449,0.018,14.898,0.018,22.347
			c0,0.402,0,0.804,0,1.268c-3.559,0-7.021,0-10.595,0c0-0.445,0.001-0.845,0-1.246c-0.011-7.449,0.007-14.897-0.06-22.346
			c-0.013-1.385-0.291-2.781-0.567-4.147c-0.993-4.898-5.188-5.863-8.58-4.842c-3.717,1.118-5.608,3.907-6.153,7.572
			c-0.359,2.419-0.444,4.894-0.474,7.346c-0.065,5.5-0.021,11.002-0.021,16.504c0,0.367,0,0.735,0,1.162c-3.5,0-6.9,0-10.457,0
			c0-0.391,0-0.784,0-1.177c0-5.912,0.06-11.824-0.026-17.734c-0.039-2.688-0.125-5.416-0.611-8.047
			c-1.077-5.827-6.909-7.866-11.578-4.19c-1.443,1.136-2.533,2.599-2.897,4.358c-0.503,2.423-0.916,4.907-0.971,7.374
			c-0.136,6.045-0.045,12.095-0.045,18.143C109.176-133.631,109.176-133.227,109.176-132.743z"/>
		<path display="inline" fill-rule="evenodd" clip-rule="evenodd" fill="#FFFFFF" d="M233.582-49.608c0,6.603,0,12.947,0,19.356
			c-3.447,0-6.84,0-10.282,0c0-18.835,0-37.639,0-56.482c3.43,0,6.799,0,10.25,0c0,1.383,0,2.735,0,4.241
			c0.279-0.175,0.452-0.248,0.581-0.369c9.856-9.205,26.391-5.49,30.868,9.187c2.208,7.236,1.659,14.365-2.805,20.757
			c-3.21,4.597-7.523,7.679-13.243,8.429c-5.371,0.705-10.146-0.643-14.267-4.198C234.384-48.946,234.076-49.196,233.582-49.608z
			 M233.032-66.175c0.188,1.279,0.255,2.59,0.583,3.831c1.083,4.096,3.584,6.994,7.721,8.118c4.198,1.141,7.994,0.246,11.058-3.001
			c3.061-3.243,3.723-7.172,3.13-11.422c-1.009-7.235-8.325-11.562-15.16-8.979C235.844-75.92,233.156-71.657,233.032-66.175z"/>
		<path display="inline" fill-rule="evenodd" clip-rule="evenodd" fill="#FFFFFF" d="M-231.821-204.387
			c0.232-0.038,0.33-0.068,0.428-0.068c9.499,0.007,19-0.073,28.497,0.063c4.981,0.072,9.843,1.029,14.355,3.295
			c6.445,3.236,9.9,8.572,10.833,15.623c0.192,1.45,0.24,2.927,0.244,4.392c0.022,8.543,0.011,17.085,0.011,25.628
			c-0.001,11.262-5.9,18.794-16.848,21.504c-3.363,0.833-6.781,1.239-10.244,1.246c-6.697,0.013-13.396,0.059-20.091-0.038
			c-1.533-0.022-3.116-0.401-4.573-0.911c-1.755-0.615-2.633-1.959-2.63-3.95c0.031-21.87,0.02-43.738,0.02-65.608
			C-231.821-203.582-231.821-203.954-231.821-204.387z M-225.796-138.271c0.482,0,0.853,0,1.224,0
			c5.738,0,11.477,0.035,17.214-0.017c2.351-0.021,4.707-0.157,7.048-0.377c2.665-0.251,5.239-0.947,7.659-2.113
			c6.343-3.054,9.008-8.427,9.149-15.154c0.158-7.579,0.068-15.164,0.059-22.746c-0.002-1.534-0.036-3.077-0.204-4.599
			c-0.712-6.451-3.954-11.066-10.029-13.564c-3.989-1.641-8.199-2.008-12.445-2.038c-6.182-0.043-12.364-0.011-18.547-0.011
			c-0.361,0-0.723,0-1.128,0C-225.796-178.636-225.796-158.531-225.796-138.271z"/>
		<path display="inline" fill-rule="evenodd" clip-rule="evenodd" fill="#FFFFFF" d="M163.441-45.412c-3.476,0-6.84,0-10.321,0
			c0-0.435,0-0.837,0-1.239c0-6.319,0.043-12.64-0.022-18.958c-0.024-2.279-0.193-4.572-0.504-6.83
			c-0.355-2.578-1.553-4.699-4.224-5.526c-2.822-0.873-5.425-0.331-7.622,1.67c-2.352,2.142-3.435,4.932-3.492,8.041
			c-0.132,7.135-0.138,14.272-0.194,21.409c-0.004,0.443-0.001,0.886-0.001,1.408c-3.433,0-6.822,0-10.266,0
			c0-19.071,0-38.121,0-57.249c3.379,0,6.768,0,10.244,0c0,6.596,0,13.172,0,19.989c0.503-0.381,0.841-0.636,1.177-0.893
			c3.453-2.635,7.227-4.287,11.69-4.23c7.074,0.09,12.76,5.232,13.357,12.267c0.112,1.325,0.168,2.658,0.171,3.987
			c0.015,8.301,0.007,16.601,0.007,24.901C163.441-46.265,163.441-45.864,163.441-45.412z"/>
		<path display="inline" fill-rule="evenodd" clip-rule="evenodd" fill="#FFFFFF" d="M-123.155-150.311c-10.996,0-22.028,0-33.064,0
			c0.34,4.783,4.443,8.953,9.354,9.618c4.527,0.613,8.526-0.456,11.942-3.557c0.2-0.182,0.644-0.321,0.859-0.225
			c2.768,1.237,5.514,2.521,8.359,3.835c-1.946,2.826-4.343,4.99-7.301,6.526c-4.196,2.18-8.718,2.684-13.341,2.392
			c-7.335-0.463-13.148-3.689-17.036-9.999c-6-9.739-3.825-26.942,10.962-32.216c8.133-2.901,19.405-1.3,25.582,7.711
			c2.932,4.277,3.954,9.079,3.909,14.175c-0.004,0.512-0.034,1.023-0.056,1.535C-122.985-150.488-123.024-150.463-123.155-150.311z
			 M-133.573-158.574c-0.592-3.918-5.449-7.561-10.211-7.719c-5.697-0.19-10.211,2.569-11.879,7.719
			C-148.301-158.574-140.94-158.574-133.573-158.574z"/>
		<path display="inline" fill-rule="evenodd" clip-rule="evenodd" fill="#FFFFFF" d="M-29.428-150.339c-11.191,0-22.249,0-33.314,0
			c0.443,4.914,4.466,8.987,9.383,9.648c4.528,0.609,8.525-0.463,11.939-3.567c0.198-0.18,0.644-0.309,0.862-0.211
			c2.767,1.237,5.514,2.521,8.351,3.833c-1.956,2.825-4.346,5.009-7.318,6.527c-4.634,2.367-9.588,2.8-14.663,2.25
			c-6.819-0.74-12.116-4.033-15.707-9.871c-5.995-9.749-3.807-26.946,10.981-32.209c8.138-2.896,19.402-1.291,25.578,7.726
			c2.909,4.247,3.927,9.017,3.908,14.075C-29.43-151.593-29.428-151.047-29.428-150.339z M-40.06-158.559
			c-0.859-4.508-5.94-7.861-11.598-7.732c-4.908,0.112-9.97,3.842-10.477,7.732C-54.802-158.559-47.471-158.559-40.06-158.559z"/>
		<path display="inline" fill-rule="evenodd" clip-rule="evenodd" fill="#FFFFFF" d="M213.469-150.319c-11.154,0-22.186,0-33.219,0
			c0.194,4.268,3.771,8.393,8.221,9.391c4.802,1.078,9.155,0.13,12.873-3.197c0.491-0.439,0.844-0.497,1.42-0.222
			c2.614,1.244,5.25,2.444,7.979,3.707c-1.548,2.309-3.446,4.126-5.687,5.596c-3.072,2.014-6.497,2.972-10.121,3.267
			c-4.735,0.385-9.381,0.013-13.646-2.277c-6.663-3.576-10.452-9.186-11.127-16.72c-0.766-8.55,1.968-15.692,9.12-20.783
			c4.667-3.322,9.977-4.058,15.539-3.4c6.816,0.805,12.064,4.132,15.6,10.021C213.097-160.477,213.733-155.551,213.469-150.319z
			 M202.877-158.571c-0.563-3.898-5.438-7.562-10.203-7.722c-5.698-0.191-10.199,2.558-11.89,7.722
			C188.15-158.571,195.511-158.571,202.877-158.571z"/>
		<path display="inline" fill-rule="evenodd" clip-rule="evenodd" fill="#FFFFFF" d="M38.921-153.376
			c0.093,11.479-9.173,21.935-22.452,21.75c-11.198-0.157-21.311-10.058-21.033-22.331c0.271-11.98,10.854-21.659,22.174-21.229
			C28.799-174.762,39.021-165.885,38.921-153.376z M5.876-152.982c0.077,0.627,0.115,1.801,0.375,2.922
			c0.977,4.2,3.378,7.27,7.605,8.461c4.255,1.2,8.155,0.328,11.263-2.977c3.14-3.339,3.712-7.422,3.007-11.753
			c-1.254-7.7-9.633-11.801-16.392-7.976C7.595-161.962,5.953-158.131,5.876-152.982z"/>
		<path display="inline" fill-rule="evenodd" clip-rule="evenodd" fill="#FFFFFF" d="M214.836-66.087
			c0.12,11.519-9.163,21.961-22.397,21.804c-11.25-0.133-21.34-10.064-21.089-22.277c0.248-12.037,10.861-21.687,22.121-21.285
			C204.656-87.447,214.908-78.594,214.836-66.087z M181.75-65.701c0.13,0.979,0.183,1.976,0.403,2.934
			c0.979,4.245,3.394,7.335,7.666,8.524c4.263,1.187,8.157,0.29,11.25-3.026c3.095-3.319,3.706-7.376,2.965-11.663
			c-0.727-4.205-3.033-7.353-7.138-8.755c-4.089-1.397-7.982-0.806-11.271,2.189C182.756-72.887,181.72-69.507,181.75-65.701z"/>
		<path display="inline" fill-rule="evenodd" clip-rule="evenodd" fill="#FFFFFF" d="M13.907-66.009
			c0.082,11.46-9.174,21.923-22.476,21.724c-11.208-0.168-21.249-10.079-21.01-22.251c0.236-12.061,10.863-21.698,22.098-21.311
			C3.717-87.46,14.02-78.583,13.907-66.009z M-19.178-65.706c0.13,0.979,0.183,1.977,0.403,2.935
			c0.977,4.246,3.391,7.336,7.663,8.527c4.262,1.188,8.157,0.293,11.25-3.022c3.096-3.318,3.708-7.374,2.969-11.662
			c-0.725-4.206-3.031-7.354-7.134-8.758c-4.088-1.398-7.982-0.809-11.273,2.186C-18.17-72.89-19.207-69.511-19.178-65.706z"/>
		<path display="inline" fill-rule="evenodd" clip-rule="evenodd" fill="#FFFFFF" d="M232.194-132.748c-3.487,0-6.858,0-10.31,0
			c0-13.754,0-27.498,0-41.306c3.405,0,6.799,0,10.269,0c0,1.278,0,2.53,0,4.049c0.477-0.348,0.788-0.562,1.086-0.794
			c2.702-2.102,5.609-3.737,9.076-4.222c7.35-1.026,15.476,3.203,16.114,12.491c0.073,1.055,0.138,2.112,0.14,3.169
			c0.012,8.438,0.006,16.875,0.006,25.312c0,0.404,0,0.808,0,1.277c-3.449,0-6.813,0-10.321,0c0-0.39,0-0.788,0-1.186
			c0-5.192,0.057-10.386-0.021-15.577c-0.051-3.374-0.07-6.775-0.507-10.111c-0.755-5.782-6.9-8.055-11.437-4.342
			c-2.691,2.203-3.826,5.229-3.896,8.587c-0.148,7.066-0.142,14.136-0.198,21.204C232.191-133.75,232.194-133.307,232.194-132.748z"
			/>
		<path display="inline" fill-rule="evenodd" clip-rule="evenodd" fill="#FFFFFF" d="M-105.649-102.252
			c0.368,0.438,0.725,0.864,1.062,1.266c0.322-0.969,0.568-1.709,0.814-2.449c0.119,0.002,0.238,0.005,0.357,0.008
			c-0.456-0.548-0.929-1.083-1.356-1.652c-0.125-0.166-0.149-0.428-0.168-0.651c-0.197-2.333-1.271-4.221-2.956-5.787
			c-1.604-1.491-3.543-1.761-5.667-1.524c0,0.298,0,0.55,0,0.806c-1.78,0.402-3.104,1.375-4.053,2.883
			c-0.499,0.793-1.117,1.315-2.218,0.537c-0.692,1.701-1.355,3.327-2.045,5.02c-0.177-0.233-0.294-0.525-0.505-0.63
			c-0.268-0.132-0.628-0.189-0.914-0.125c-0.14,0.032-0.3,0.423-0.28,0.636c0.243,2.61,0.391,5.24,0.837,7.818
			c0.224,1.291,0.906,2.541,1.561,3.709c0.697,1.244,1.687,2.324,2.382,3.569c0.262,0.47,0.312,1.385,0.023,1.779
			c-1.185,1.616-2.399,3.267-3.894,4.573c-0.634,0.555-1.985,0.29-2.885,0.384c-0.017-0.825-0.03-1.459-0.043-2.094
			c-0.548,0.2-1.097,0.4-1.709,0.623c-0.123-0.697-0.28-1.592-0.452-2.568c-0.36,0.081-0.7,0.157-1.179,0.265
			c-0.615-2.134-1.49-4.159-0.875-6.463c0.333-1.248,0.532-2.542,0.678-3.828c0.344-3.016,1.436-5.741,3.038-8.287
			c0.254-0.403,0.5-0.811,0.759-1.232c0.125,0.134,0.261,0.281,0.529,0.57c0.24-0.313,0.464-0.573,0.648-0.859
			c0.129-0.201,0.202-0.438,0.3-0.658c-0.242-0.018-0.483-0.035-0.859-0.062c1.768-2.141,3.522-4.266,5.184-6.281
			c0.637,0.375,1.145,0.673,1.653,0.972c0.073-0.114,0.146-0.227,0.219-0.341c-0.239-0.169-0.478-0.338-0.817-0.579
			c0.445-0.378,0.804-0.821,1.269-1.052c1.793-0.892,3.564-1.879,5.449-2.521c2.03-0.691,2.435-0.398,3.621,1.406
			c0.123,0.188,0.26,0.367,0.501,0.566c-0.007-1.227,0.325-2.223,1.595-2.784c0.284,0.625,0.569,1.255,0.854,1.884
			c0.086,0.004,0.173,0.009,0.26,0.013c0.13-0.405,0.261-0.81,0.401-1.245c4.011,1.662,6.858,4.632,8.897,8.453
			c2.481,4.65,3.122,9.432,1.317,14.517c-0.522,1.473-0.367,3.173-0.658,4.743c-1.006,5.42-2.885,10.583-4.706,15.764
			c-1.628,4.633-3.357,9.25-4.048,14.14c-0.209,1.48,0.044,3.025,0.084,4.498c-4.092,0.274-8.37,0.561-12.755,0.854
			c-0.161-2.569-0.342-5.317-0.492-8.066c-0.014-0.244,0.133-0.52,0.267-0.743c0.528-0.883,0.753-1.791,0.561-2.837
			c-0.094-0.51,0-1.1,0.162-1.603c1.355-4.181,3.147-8.269,4.02-12.545c1.013-4.962,3.401-9.427,4.466-14.327
			c0.283-1.301,0.107-2.828,2.111-3.183C-106.525-98.809-106.156-100.538-105.649-102.252z M-101.243-111.135
			c-0.949-0.675-1.335,0.391-1.975,0.721C-102.262-109.637-101.881-110.798-101.243-111.135z M-100.527-94.762
			c0.282,0.382,0.499,0.676,0.716,0.969c0.135-0.289,0.395-0.587,0.373-0.864c-0.027-0.346-0.287-0.672-0.445-1.008
			C-100.067-95.407-100.251-95.149-100.527-94.762z M-100.746-104.552c0,0.632,0,1.194,0,1.735c0.843,0.269,0.829-0.256,0.784-0.753
			C-100.002-104.025-99.667-104.794-100.746-104.552z M-101.401-107.037c-0.077-0.023-0.153-0.047-0.229-0.07
			c-0.288,0.348-0.576,0.695-0.863,1.042c0.091-0.051,0.183-0.102,0.274-0.153c0.232,0.385,0.465,0.77,0.819,1.355
			C-101.401-105.807-101.401-106.422-101.401-107.037z M-105.604-93.565c-0.3,0.283-0.498,0.47-0.696,0.657
			c0.209,0.142,0.427,0.406,0.627,0.394c0.248-0.015,0.481-0.259,0.721-0.405C-105.127-93.093-105.302-93.266-105.604-93.565z
			 M-100.841-95.005c-1.116-0.311-1.066,0.247-1.002,0.713c0.025,0.184,0.281,0.336,0.431,0.503
			C-101.233-94.17-101.054-94.552-100.841-95.005z M-103.524-108.285c-0.236,0.857-0.112,1.201,0.504,1.09
			c0.261-0.047,0.489-0.277,0.731-0.424C-102.663-107.821-103.037-108.022-103.524-108.285z M-104.681-112.312
			c-1.18-0.415-0.926,0.585-1.434,1.022C-104.983-110.933-105.112-111.851-104.681-112.312z M-97.507-98.792
			c0.142-0.104,0.284-0.208,0.426-0.312c0.122-0.773-0.706-0.667-1.132-0.933c-0.094,0.093-0.189,0.186-0.284,0.278
			C-98.167-99.436-97.837-99.114-97.507-98.792z"/>
		<path display="inline" fill-rule="evenodd" clip-rule="evenodd" fill="#FFFFFF" d="M-61.927-115.771
			c-0.082-0.403-0.13-0.642-0.184-0.907c1.133,0,2.219,0,3.439,0c-0.185,0.767-0.342,1.481-0.529,2.188
			c-3.549,13.411-7.118,26.816-10.621,40.239c-0.265,1.013-1.167,0.764-1.764,1.391c0.47,0.117,0.858,0.214,1.309,0.327
			c-0.227,1.365-0.458,2.754-0.698,4.201c-0.151-0.177-0.293-0.341-0.478-0.557c-0.207,0.227-0.406,0.444-0.605,0.662
			c0.09-0.001,0.18-0.001,0.27-0.001c0.168,1.087,0.464,2.173,0.482,3.263c0.061,3.651,0.023,7.304,0.023,10.804
			c-1.428-0.274-2.835-0.546-4.472-0.86c0.22,0.55,0.324,0.811,0.517,1.294c-3.068-0.24-6.02-0.472-8.912-0.699
			c-0.134-1.674-0.262-3.281-0.405-5.062c-1.533,1.407-2.967,2.564-4.203,3.904c-1.218,1.319-2.453,1.341-4.041,0.418
			c2.244-3.455,4.496-6.923,6.771-10.425c-0.272-0.166-0.529-0.322-0.889-0.54c0.421-1.185,0.896-2.381,1.271-3.606
			c1.057-3.452,2.068-6.918,3.106-10.375c0.63-2.099,1.252-4.208,3.332-5.602c-0.466-0.299-0.876-0.562-1.362-0.874
			c0.485-1.578,1.021-3.19,1.476-4.826c1.45-5.222,2.774-10.48,4.34-15.666c0.794-2.63,1.953-5.156,3.042-7.688
			c0.613-1.426,2.006-1.811,3.391-1.911c1.529-0.11,3.077-0.1,4.606,0.008C-63.169-116.631-62.654-116.152-61.927-115.771z"/>
		<path display="inline" fill-rule="evenodd" clip-rule="evenodd" fill="#FFFFFF" d="M299.859-80.88
			c-2.16,2.047-4.336,4.108-6.562,6.219c-0.791-0.626-1.729-1.459-2.758-2.162c-1.645-1.124-3.427-1.839-5.489-1.382
			c-1.179,0.261-2.15,0.812-2.387,2.082c-0.229,1.224,0.529,2.027,1.5,2.555c2.128,1.153,4.337,2.16,6.437,3.359
			c1.978,1.13,4.026,2.231,5.752,3.691c6.651,5.624,5.454,16.171-2.228,20.288c-5.937,3.183-16.61,3.142-22.635-4.86
			c-0.079-0.105-0.137-0.228-0.248-0.416c2.107-2.318,4.212-4.632,6.162-6.776c1.791,1.211,3.447,2.461,5.229,3.495
			c1.561,0.907,3.313,1.291,5.131,0.813c0.552-0.145,1.112-0.364,1.584-0.678c1.725-1.144,2.001-2.991,0.514-4.421
			c-1.017-0.977-2.246-1.767-3.473-2.48c-2.443-1.422-5.029-2.61-7.409-4.125c-2.701-1.718-4.82-4.039-5.779-7.198
			c-1.807-5.952,1.731-12.191,8.029-14.223c6.592-2.127,14.265,0.311,18.432,5.858C299.719-81.161,299.757-81.065,299.859-80.88z"/>
		<path display="inline" fill-rule="evenodd" clip-rule="evenodd" fill="#FFFFFF" d="M89.171-51.504
			c2.122-2.333,4.208-4.627,6.335-6.966c0.728,0.654,1.389,1.34,2.138,1.907c2.039,1.545,4.22,2.861,6.891,2.725
			c0.944-0.048,1.97-0.37,2.775-0.864c1.721-1.056,1.963-2.932,0.516-4.331c-1.037-1.002-2.297-1.81-3.552-2.542
			c-2.44-1.426-5.03-2.608-7.405-4.131c-2.693-1.726-4.807-4.052-5.749-7.22c-1.623-5.458,1.178-11.159,6.662-13.632
			c6.755-3.047,15.683-0.566,19.985,5.611c-2.187,2.057-4.386,4.126-6.606,6.215c-0.835-0.642-1.867-1.53-2.992-2.279
			c-1.543-1.026-3.231-1.613-5.135-1.204c-1.391,0.299-2.324,1.071-2.454,2.14c-0.151,1.236,0.594,2.013,1.56,2.536
			c2.038,1.104,4.147,2.077,6.172,3.205c1.843,1.027,3.721,2.045,5.394,3.316c6.752,5.128,6.52,15.073-0.387,20.006
			C107.561-42.9,95.283-42.684,89.171-51.504z"/>
		<path display="inline" fill-rule="evenodd" clip-rule="evenodd" fill="#FFFFFF" d="M-98.032-149.795
			c3.517-8.235,6.945-16.258,10.375-24.291c3.491,0,6.936,0,10.533,0c-0.137,0.387-0.236,0.723-0.373,1.043
			c-5.578,13.114-11.169,26.222-16.717,39.349c-0.343,0.811-0.756,1.04-1.578,1.011c-1.637-0.06-3.28,0.016-4.917-0.045
			c-0.341-0.013-0.854-0.293-0.978-0.583c-5.752-13.411-11.47-26.837-17.19-40.262c-0.063-0.148-0.092-0.312-0.159-0.542
			c3.415,0,6.758-0.02,10.1,0.037c0.281,0.005,0.667,0.477,0.813,0.815c3.203,7.417,6.379,14.847,9.561,22.274
			C-98.414-150.648-98.26-150.31-98.032-149.795z"/>
		<path display="inline" fill-rule="evenodd" clip-rule="evenodd" fill="#FFFFFF" d="M280.138-174.117c2.135,0,4.077,0,6.101,0
			c0,2.929,0,5.807,0,8.81c-1.982,0-3.975,0-6.048,0c0,10.904,0,21.685,0,32.536c-3.481,0-6.88,0-10.401,0
			c0-10.804,0-21.613,0-32.509c-1.815,0-3.514,0-5.274,0c0-2.973,0-5.859,0-8.837c1.741,0,3.437,0,5.256,0c0-5.089,0-10.089,0-15.13
			c3.499,0,6.87,0,10.367,0C280.138-184.237,280.138-179.241,280.138-174.117z"/>
		<path display="inline" fill-rule="evenodd" clip-rule="evenodd" fill="#FFFFFF" d="M-22.212-190.061c3.479,0,6.881,0,10.335,0
			c0,19.098,0,38.147,0,57.278c-3.411,0-6.838,0-10.335,0C-22.212-151.835-22.212-170.908-22.212-190.061z"/>
		<path display="inline" fill-rule="evenodd" clip-rule="evenodd" fill="#FFFFFF" d="M28.803-86.729c0,1.521,0,2.971,0,4.42
			c1.5-2.22,3.248-4.052,5.806-4.95c2.544-0.894,5.013-0.709,7.528,0.49c-0.541,1.465-1.065,2.894-1.596,4.321
			c-0.531,1.434-1.069,2.865-1.633,4.372c-0.534-0.206-1-0.399-1.476-0.566c-1.838-0.644-3.316-0.238-4.595,1.236
			c-1.455,1.678-2.019,3.722-2.195,5.844c-0.241,2.887-0.389,5.787-0.417,8.684c-0.055,5.634,0.002,11.269,0.011,16.903
			c0,0.165-0.025,0.33-0.044,0.555c-3.43,0-6.827,0-10.284,0c0-13.768,0-27.515,0-41.308C22.857-86.729,25.749-86.729,28.803-86.729
			z"/>
		<path display="inline" fill-rule="evenodd" clip-rule="evenodd" fill="#FFFFFF" d="M-56.758-53.909
			c-1.218-1.711-2.625-0.561-4.177-0.252c4.886-3.854,8.357-8.546,11.03-13.847c3.197-6.339,5.487-12.947,5.471-20.155
			c-0.012-5.482-1.531-10.638-3.575-15.667c-0.667-1.642-1.251-3.319-1.939-4.952c-0.443-1.052-0.289-2.004,0.272-2.921
			c0.265-0.432,0.578-0.867,0.963-1.187c2.613-2.165,5.628-3.42,8.986-3.876c0.708-0.096,1.143,0.116,1.376,0.841
			c0.874,2.719,2.296,5.376,2.565,8.149c0.399,4.115,0.355,8.352-0.14,12.46c-1.385,11.505-5.5,22.06-12.033,31.642
			C-50.432-60.048-53.362-56.812-56.758-53.909z"/>
		<path display="inline" fill-rule="evenodd" clip-rule="evenodd" fill="#FFFFFF" d="M-114.274-50.531
			c2.42-0.21,4.685-0.445,6.956-0.565c0.368-0.02,0.764,0.471,1.257,0.799c0.662-1.208,1.832-0.779,2.919-0.737
			c3.167,0.12,6.334,0.232,9.5,0.344c0.363,0.014,0.727,0.002,1.261,0.002c-0.23,0.33-0.326,0.549-0.49,0.689
			c-3.029,2.603-6.26,4.938-10.301,5.549c-4.183,0.632-8.348-0.716-10.605-5.031C-113.93-49.774-114.06-50.077-114.274-50.531z"/>
		<path display="inline" fill-rule="evenodd" clip-rule="evenodd" fill="#FFFFFF" d="M-69.824-46.362
			c-0.076-0.907-0.183-1.812-0.221-2.722c-0.055-1.28,0.224-1.59,1.513-1.602c2.72-0.024,5.441-0.008,8.162-0.008
			c0.016,0.102,0.032,0.203,0.048,0.305c-0.144,0.176-0.258,0.395-0.438,0.521c-2.118,1.486-4.208,3.017-6.385,4.41
			c-1.065,0.683-2.287,0.958-3.378-0.417c-0.104,0.591-0.178,1.008-0.27,1.53c-2.024,0-4.063,0.018-6.102-0.019
			c-0.311-0.006-0.685-0.188-0.915-0.409c-1.851-1.782-3.674-3.592-5.506-5.394c0.07-0.14,0.14-0.278,0.209-0.418
			c1.241,0,2.483,0.012,3.724-0.003c2.354-0.026,4.708-0.079,7.062-0.098c1.253-0.009,1.348,0.164,1.466,1.394
			c0.097,1.013,0.347,2.011,0.529,3.016C-70.158-46.305-69.991-46.334-69.824-46.362z"/>
		<path display="inline" fill-rule="evenodd" clip-rule="evenodd" fill="#FFFFFF" d="M-83.784-52.459
			c0.02-0.396,0.032-0.653,0.05-1.01c4.158,0.185,8.26,0.368,12.403,0.553c0,0.327,0,0.584,0,0.957
			C-75.467-52.125-79.57-52.29-83.784-52.459z"/>
		<path display="inline" fill-rule="evenodd" clip-rule="evenodd" fill="#FFFFFF" d="M-57.441-52.845
			c-2.238,0.383-4.477,0.765-6.715,1.146c0.446-1.133,1.115-1.559,2.21-1.479c1.481,0.109,2.976,0.027,4.465,0.027
			C-57.468-53.048-57.455-52.946-57.441-52.845z"/>
		<path display="inline" fill-rule="evenodd" clip-rule="evenodd" fill="#FFFFFF" d="M-90.217-53.159
			c-1.045,1.604-1.118,1.643-2.716,1.324c-0.831-0.164-1.654-0.361-2.488-0.702C-93.731-52.739-92.04-52.941-90.217-53.159z"/>
		<path display="inline" fill-rule="evenodd" clip-rule="evenodd" fill="#FFFFFF" d="M-109.007-52.981
			c0.82,0.268,1.426,0.465,2.106,0.686c-0.117,0.301-0.207,0.531-0.325,0.834C-107.852-51.92-108.92-51.668-109.007-52.981z"/>
		<path display="inline" fill-rule="evenodd" clip-rule="evenodd" fill="#FFFFFF" d="M-111.344-51.417
			c-0.602-0.398-1.543-0.32-1.211-1.561C-111.987-52.482-110.918-52.666-111.344-51.417z"/>
		<path fill-rule="evenodd" clip-rule="evenodd" fill="#FFFFFF" d="M79.821-153.876c-0.05,4.644-1.504,8.224-5.005,10.781
			c-5.6,4.09-15.469,2.004-17.29-7.365c-0.773-3.98-0.356-7.873,2.331-11.142c3.159-3.843,7.347-4.929,11.994-3.589
			c4.543,1.31,6.948,4.704,7.76,9.274C79.753-155.114,79.781-154.29,79.821-153.876z"/>
		<path fill-rule="evenodd" clip-rule="evenodd" fill="#FFFFFF" d="M233.032-66.175c0.124-5.482,2.812-9.745,7.331-11.453
			c6.835-2.583,14.151,1.744,15.16,8.979c0.593,4.25-0.069,8.179-3.13,11.422c-3.063,3.247-6.859,4.142-11.058,3.001
			c-4.137-1.124-6.638-4.022-7.721-8.118C233.287-63.585,233.219-64.896,233.032-66.175z"/>
		<path fill-rule="evenodd" clip-rule="evenodd" fill="#FFFFFF" d="M-225.796-138.271c0-20.26,0-40.365,0-60.62
			c0.405,0,0.767,0,1.128,0c6.183,0,12.365-0.032,18.547,0.011c4.247,0.029,8.456,0.397,12.445,2.038
			c6.075,2.499,9.316,7.114,10.029,13.564c0.168,1.522,0.202,3.065,0.204,4.599c0.009,7.582,0.099,15.167-0.059,22.746
			c-0.141,6.727-2.806,12.1-9.149,15.154c-2.42,1.166-4.994,1.861-7.659,2.113c-2.341,0.221-4.697,0.356-7.048,0.377
			c-5.738,0.052-11.476,0.017-17.214,0.017C-224.943-138.271-225.314-138.271-225.796-138.271z"/>
		<path fill-rule="evenodd" clip-rule="evenodd" fill="#FFFFFF" d="M-133.573-158.574c-7.367,0-14.728,0-22.09,0
			c1.668-5.15,6.182-7.909,11.879-7.719C-139.022-166.135-134.166-162.492-133.573-158.574z"/>
		<path fill-rule="evenodd" clip-rule="evenodd" fill="#FFFFFF" d="M-40.06-158.559c-7.411,0-14.742,0-22.075,0
			c0.507-3.89,5.569-7.62,10.477-7.732C-46-166.42-40.919-163.066-40.06-158.559z"/>
		<path fill-rule="evenodd" clip-rule="evenodd" fill="#FFFFFF" d="M202.877-158.571c-7.366,0-14.728,0-22.093,0
			c1.69-5.165,6.191-7.913,11.89-7.722C197.439-166.133,202.314-162.469,202.877-158.571z"/>
		<path fill-rule="evenodd" clip-rule="evenodd" fill="#FFFFFF" d="M5.876-152.982c0.077-5.149,1.719-8.979,5.859-11.323
			c6.759-3.825,15.138,0.276,16.392,7.976c0.705,4.332,0.133,8.414-3.007,11.753c-3.108,3.305-7.008,4.177-11.263,2.977
			c-4.227-1.191-6.628-4.262-7.605-8.461C5.991-151.182,5.953-152.355,5.876-152.982z"/>
		<path fill-rule="evenodd" clip-rule="evenodd" fill="#FFFFFF" d="M181.75-65.701c-0.03-3.806,1.006-7.186,3.875-9.797
			c3.289-2.995,7.183-3.587,11.271-2.189c4.104,1.402,6.411,4.55,7.138,8.755c0.741,4.287,0.13,8.344-2.965,11.663
			c-3.093,3.316-6.987,4.213-11.25,3.026c-4.272-1.189-6.687-4.279-7.666-8.524C181.933-63.726,181.88-64.723,181.75-65.701z"/>
		<path fill-rule="evenodd" clip-rule="evenodd" fill="#FFFFFF" d="M-19.178-65.706c-0.029-3.805,1.008-7.184,3.878-9.795
			c3.291-2.994,7.185-3.584,11.273-2.186c4.103,1.403,6.409,4.552,7.134,8.758c0.74,4.288,0.127,8.344-2.969,11.662
			c-3.094,3.315-6.989,4.21-11.25,3.022c-4.272-1.191-6.686-4.281-7.663-8.527C-18.996-63.729-19.048-64.727-19.178-65.706z"/>
		<path fill-rule="evenodd" clip-rule="evenodd" fill="#FFFFFF" d="M-101.243-111.135c-0.638,0.336-1.019,1.498-1.975,0.721
			C-102.578-110.744-102.191-111.81-101.243-111.135z"/>
		<path fill-rule="evenodd" clip-rule="evenodd" fill="#FFFFFF" d="M-100.527-94.762c0.276-0.387,0.46-0.645,0.644-0.902
			c0.159,0.335,0.418,0.662,0.445,1.008c0.022,0.276-0.238,0.575-0.373,0.864C-100.028-94.086-100.245-94.38-100.527-94.762z"/>
		<path fill-rule="evenodd" clip-rule="evenodd" fill="#FFFFFF" d="M-100.746-104.552c1.079-0.242,0.743,0.526,0.784,0.981
			c0.045,0.498,0.059,1.022-0.784,0.753C-100.746-103.357-100.746-103.92-100.746-104.552z"/>
		<path fill-rule="evenodd" clip-rule="evenodd" fill="#FFFFFF" d="M-101.401-107.037c0,0.615,0,1.23,0,2.175
			c-0.354-0.585-0.586-0.971-0.819-1.355c-0.091,0.051-0.183,0.102-0.274,0.153c0.288-0.348,0.575-0.695,0.863-1.042
			C-101.554-107.084-101.478-107.061-101.401-107.037z"/>
		<path fill-rule="evenodd" clip-rule="evenodd" fill="#FFFFFF" d="M-105.604-93.565c0.302,0.299,0.477,0.472,0.652,0.646
			c-0.24,0.146-0.474,0.39-0.721,0.405c-0.2,0.012-0.417-0.252-0.627-0.394C-106.102-93.095-105.904-93.282-105.604-93.565z"/>
		<path fill-rule="evenodd" clip-rule="evenodd" fill="#FFFFFF" d="M-100.841-95.005c-0.213,0.454-0.392,0.835-0.571,1.216
			c-0.15-0.167-0.406-0.319-0.431-0.503C-101.907-94.758-101.957-95.316-100.841-95.005z"/>
		<path fill-rule="evenodd" clip-rule="evenodd" fill="#FFFFFF" d="M-103.524-108.285c0.487,0.263,0.861,0.464,1.235,0.666
			c-0.243,0.147-0.471,0.377-0.731,0.424C-103.637-107.084-103.761-107.428-103.524-108.285z"/>
		<path fill-rule="evenodd" clip-rule="evenodd" fill="#FFFFFF" d="M-104.681-112.312c-0.431,0.461-0.302,1.38-1.434,1.022
			C-105.606-111.728-105.861-112.728-104.681-112.312z"/>
		<path fill-rule="evenodd" clip-rule="evenodd" fill="#FFFFFF" d="M-97.507-98.792c-0.33-0.322-0.66-0.644-0.99-0.966
			c0.095-0.093,0.189-0.186,0.284-0.278c0.426,0.266,1.254,0.159,1.132,0.933C-97.223-99-97.365-98.896-97.507-98.792z"/>
	</g>
	<g id="Arabic">
		<path fill-rule="evenodd" clip-rule="evenodd" fill="#FFFFFF" d="M73.764,37.531c-0.137,0.716-0.228,1.359-0.386,1.985
			c-0.898,3.562-3.272,5.577-7.319,6.138c-1.212,0.168-2.448,0.207-3.674,0.216c-3.719,0.026-7.438,0.01-11.229,0.01
			c0-1.444,0-2.819,0-4.306c0.97,0,1.918,0.015,2.864-0.003c3.345-0.062,6.694-0.037,10.03-0.238
			c2.332-0.14,3.775-1.671,3.914-3.825c-0.369,0-0.732,0.001-1.096,0c-3.007-0.012-6.013-0.002-9.019-0.04
			c-3.991-0.051-6.576-1.855-7.635-5.569c-1.257-4.408-1.358-8.912-0.333-13.375c0.902-3.927,4.066-6.512,8.085-6.634
			c3.823-0.116,7.653-0.09,11.479-0.017c2.881,0.056,4.414,1.77,4.425,4.776c0.019,5.091,0.006,10.182,0.006,15.272
			c0,0.37,0,0.741,0,1.359c2.1-0.135,4.158-0.075,6.137-0.446c2.293-0.429,3.217-2.299,3.471-4.429
			c0.197-1.654,0.088-3.344,0.256-5.003c0.167-1.654,0.382-3.325,0.804-4.929c0.946-3.599,3.44-5.648,7.012-6.372
			c3.548-0.719,7.149-0.723,10.704-0.16c5.23,0.827,7.91,3.701,8.493,9.011c0.226,2.059,0.324,4.172,0.126,6.227
			c-0.194,2.002-0.841,3.961-1.266,5.839c1.845,0,3.885,0.087,5.914-0.026c1.787-0.1,2.893-1.258,3.229-2.943
			c0.284-1.424,0.365-2.905,0.382-4.363c0.047-4.202,0.017-8.404,0.017-12.606c0-0.37,0-0.739,0-1.171c1.904,0,3.73,0,5.674,0
			c0,0.424-0.002,0.826,0,1.229c0.033,5.329,0.137,10.658,0.061,15.984c-0.025,1.848,1.283,3.656,3.394,3.798
			c3.193,0.214,6.415,0.258,9.612,0.108c2.355-0.109,3.564-1.628,3.819-4.159c0.059-0.576,0.059-1.16,0.059-1.74
			c0.004-4.681,0.003-9.361,0.003-14.042c0-0.369,0-0.738,0-1.174c1.911,0,3.738,0,5.707,0c0,0.351,0,0.711,0,1.072
			c0,5.364,0.002,10.728-0.001,16.092c-0.002,5.17-3.079,8.328-8.251,8.388c-3.928,0.045-7.856,0.033-11.784-0.001
			c-1.951-0.018-3.772-0.529-5.339-1.82c-1.881,1.516-4.063,1.832-6.37,1.843c-6.659,0.033-13.317,0.153-19.978,0.181
			c-3.224,0.014-6.337-0.476-8.949-2.741C83.027,38.535,78.256,37.16,73.764,37.531z M105.051,24.473
			c0.042-0.001,0.085-0.001,0.127-0.002c-0.044-0.885-0.066-1.771-0.135-2.654c-0.226-2.923-1.865-5.061-4.729-5.518
			c-1.946-0.311-4.011-0.233-5.977,0.021c-2.449,0.317-4.038,1.935-4.348,4.382c-0.285,2.249-0.43,4.569-0.212,6.817
			c0.322,3.31,2.185,5.229,5.13,5.613c1.472,0.192,3,0.207,4.476,0.047c3.369-0.366,5.453-2.66,5.66-6.05
			C105.097,26.247,105.051,25.358,105.051,24.473z M68.136,32.956c0-4.814,0.003-9.692-0.001-14.57
			c-0.002-1.484-0.576-2.149-2.064-2.194c-1.875-0.057-3.758-0.09-5.629,0.022c-2.102,0.125-3.924,0.91-4.565,3.135
			c-1.044,3.619-0.993,7.285,0.006,10.905c0.41,1.483,1.49,2.592,3.052,2.662C61.954,33.054,64.985,32.956,68.136,32.956z"/>
		<path fill-rule="evenodd" clip-rule="evenodd" fill="#FFFFFF" d="M200.961,3.687c1.958,0,3.758,0,5.674,0c0,0.445,0,0.848,0,1.25
			c0,7.379-0.001,14.758,0,22.138c0.001,4.746,1.344,6.09,6.084,6.094c1.699,0.001,3.398,0,5.188,0c0-7.145,0-14.17,0-21.259
			c1.914,0,3.736,0,5.647,0c0,7.05,0,14.072,0,21.176c3.275,0,6.465,0,9.775,0c0-7.032,0-14.081,0-21.185c1.945,0,3.77,0,5.682,0
			c0,7.076,0,14.104,0,21.363c2.398-0.109,4.721-0.068,6.998-0.365c1.773-0.23,2.746-1.945,2.752-4.259
			c0.015-5.192,0.005-10.386,0.005-15.578c0-0.368,0-0.736,0-1.16c1.913,0,3.74,0,5.707,0c0,0.381,0,0.743,0,1.106
			c0,5.432,0.012,10.863-0.013,16.295c-0.003,0.812-0.091,1.643-0.276,2.433c-0.884,3.754-3.562,5.705-7.887,5.731
			c-4.646,0.028-9.293,0.007-13.938,0.007c-7.618,0-15.236,0.001-22.854-0.001c-1.696-0.001-3.348-0.252-4.825-1.132
			c-2.551-1.52-3.662-3.877-3.709-6.766c-0.044-2.698-0.01-5.397-0.01-8.097c-0.001-5.534,0-11.068,0-16.603
			C200.961,4.507,200.961,4.138,200.961,3.687z"/>
		<path fill-rule="evenodd" clip-rule="evenodd" fill="#FFFFFF" d="M24.012,33.127c4.091,0,8.017,0.075,11.939-0.027
			c2.454-0.065,3.874-1.536,4.079-4.018c0.146-1.767,0.169-3.546,0.181-5.319c0.025-3.925,0.008-7.851,0.008-11.847
			c1.887,0,3.714,0,5.56,0c0.029,0.084,0.092,0.179,0.091,0.273c-0.011,5.84,0.104,11.685-0.083,17.52
			c-0.156,4.889-3.299,7.702-8.22,7.76c-2.254,0.026-4.51,0.005-6.764,0.005c-6.969,0-13.938,0-20.907,0
			c-5.289,0-8.132-2.212-9.269-7.368c-0.78-3.535-0.838-7.119-0.131-10.677c0.94-4.732,4.327-7.502,9.191-7.577
			c2.459-0.038,4.919-0.007,7.379-0.007c0.367,0,0.733,0,1.196,0c0-1.007,0-1.917,0-2.899c1.952,0,3.807,0,5.751,0
			C24.012,17.016,24.012,25.029,24.012,33.127z M18.204,33.111c0-5.683,0-11.291,0-16.9c-2.494,0-4.919-0.103-7.331,0.029
			c-2.352,0.128-3.907,1.537-4.444,3.852c-0.696,3-0.626,6.037-0.077,9.044c0.437,2.395,2.017,3.796,4.557,3.946
			C13.285,33.222,15.677,33.111,18.204,33.111z"/>
		<path fill-rule="evenodd" clip-rule="evenodd" fill="#FFFFFF" d="M275.433,45.788c0-1.395,0-2.747,0-4.214
			c0.479,0,0.912,0.007,1.346-0.001c3.856-0.068,7.719-0.045,11.568-0.243c2.343-0.121,3.838-1.726,3.877-3.822
			c-0.468,0-0.935,0.008-1.401-0.001c-3.447-0.064-6.905,0.013-10.338-0.245c-2.79-0.21-4.688-1.912-5.673-4.537
			c-1.337-3.568-1.372-7.285-1.128-11.018c0.066-1.017,0.21-2.042,0.449-3.032c0.992-4.096,4.188-6.725,8.388-6.811
			c3.688-0.075,7.381-0.056,11.07-0.004c2.947,0.042,4.565,1.684,4.579,4.621c0.027,6.286,0.032,12.574-0.012,18.86
			c-0.01,1.323-0.182,2.662-0.436,3.963c-0.695,3.564-3.27,5.776-7.354,6.35c-1.178,0.165-2.38,0.208-3.571,0.216
			c-3.69,0.022-7.38,0.002-11.07-0.004C275.664,45.866,275.6,45.834,275.433,45.788z M292.438,32.956
			c0-4.811,0.003-9.687-0.001-14.563c-0.002-1.487-0.574-2.157-2.058-2.2c-1.909-0.056-3.827-0.098-5.729,0.029
			c-2.061,0.138-3.836,0.943-4.466,3.124c-1.046,3.621-0.982,7.284,0.002,10.904c0.404,1.485,1.488,2.594,3.047,2.665
			C286.253,33.055,289.284,32.956,292.438,32.956z"/>
		<path fill-rule="evenodd" clip-rule="evenodd" fill="#FFFFFF" d="M161.099,17.444c2.158,0,4.029,0,6.056,0
			c0,1.1-0.011,2.176,0.002,3.251c0.028,2.457-0.077,4.927,0.137,7.367c0.291,3.308,1.704,4.842,5.005,4.962
			c4.974,0.181,9.964,0.1,14.94-0.077c2.495-0.089,3.941-1.672,4.314-4.175c0.17-1.143,0.231-2.311,0.238-3.467
			c0.027-4.201,0.011-8.401,0.012-12.603c0-0.235,0-0.47,0-0.78c1.987,0,3.908,0,5.912,0c0,0.857,0.001,1.699-0.001,2.541
			c-0.011,4.132,0.002,8.265-0.043,12.396c-0.022,2.026-0.357,4.004-1.288,5.844c-1.506,2.98-3.957,4.653-7.25,4.712
			c-6.419,0.114-12.842,0.131-19.26,0.006c-4.511-0.089-7.744-3.106-8.324-8.041C161.09,25.473,161.229,21.493,161.099,17.444z"/>
		<path fill-rule="evenodd" clip-rule="evenodd" fill="#FFFFFF" d="M265.203,11.874c1.961,0,3.764,0,5.708,0
			c0,0.389,0,0.749,0,1.109c0,7.715,0,15.431,0,23.146c0,6.258-2.738,9.311-8.98,9.897c-1.411,0.133-2.845,0.02-4.324,0.02
			c0-1.412,0-2.79,0-4.197c1.029-0.071,2.018-0.077,2.985-0.219c2.95-0.434,4.519-2.135,4.563-5.098
			c0.068-4.471,0.04-8.943,0.047-13.415c0.006-3.346,0.001-6.691,0.001-10.037C265.203,12.711,265.203,12.342,265.203,11.874z"/>
		<path fill-rule="evenodd" clip-rule="evenodd" fill="#FFFFFF" d="M245.536,0.009c0,1.462,0,2.883,0,4.38c-1.84,0-3.658,0-5.548,0
			c0-1.438,0-2.88,0-4.38C241.834,0.009,243.658,0.009,245.536,0.009z"/>
		<path fill-rule="evenodd" clip-rule="evenodd" fill="#FFFFFF" d="M134.312,3.475c1.879,0,3.679,0,5.549,0c0,1.479,0,2.921,0,4.419
			c-1.85,0-3.672,0-5.549,0C134.312,6.43,134.312,5.009,134.312,3.475z"/>
		<path fill-rule="evenodd" clip-rule="evenodd" fill="#FFFFFF" d="M147.47,3.474c0,1.522,0,2.941,0,4.418c-1.869,0-3.692,0-5.562,0
			c0-1.487,0-2.938,0-4.418C143.773,3.474,145.573,3.474,147.47,3.474z"/>
		<path fill-rule="evenodd" clip-rule="evenodd" fill="#FFFFFF" d="M179.864,3.494c0,1.476,0,2.896,0,4.386c-1.841,0-3.667,0-5.56,0
			c0-1.444,0-2.895,0-4.386C176.17,3.494,177.994,3.494,179.864,3.494z"/>
		<path fill-rule="evenodd" clip-rule="evenodd" fill="#FFFFFF" d="M187.457,3.477c0,1.51,0,2.93,0,4.411c-1.865,0-3.689,0-5.572,0
			c0-1.472,0-2.922,0-4.411C183.745,3.477,185.543,3.477,187.457,3.477z"/>
		<path fill-rule="evenodd" clip-rule="evenodd" fill="#FFFFFF" d="M124.736,3.703c0,1.502,0,2.898,0,4.373
			c-1.845,0-3.668,0-5.572,0c0-1.423,0-2.867,0-4.373C121.002,3.703,122.823,3.703,124.736,3.703z"/>
		<path fill-rule="evenodd" clip-rule="evenodd" fill="#FFFFFF" d="M39.441,45.843c0-1.513,0-2.933,0-4.413c1.865,0,3.689,0,5.569,0
			c0,1.475,0,2.925,0,4.413C43.15,45.843,41.35,45.843,39.441,45.843z"/>
		<path fill-rule="evenodd" clip-rule="evenodd" fill="#FFFFFF" d="M232.251,4.396c0-1.516,0-2.93,0-4.393c1.88,0,3.703,0,5.604,0
			c0,1.444,0,2.884,0,4.393C236.017,4.396,234.168,4.396,232.251,4.396z"/>
		<path fill-rule="evenodd" clip-rule="evenodd" fill="#FFFFFF" d="M230.252,4.426c-1.905,0-3.706,0-5.576,0
			c0-1.479,0-2.922,0-4.419c1.865,0,3.689,0,5.576,0C230.252,1.471,230.252,2.914,230.252,4.426z"/>
		<path fill-rule="evenodd" clip-rule="evenodd" fill="#FFFFFF" d="M14.859,0.004c1.839,0,3.636,0,5.521,0c0,1.439,0,2.881,0,4.392
			c-1.818,0-3.637,0-5.521,0C14.859,2.939,14.859,1.497,14.859,0.004z"/>
		<path fill-rule="evenodd" clip-rule="evenodd" fill="#FFFFFF" d="M7.218,0c1.884,0,3.681,0,5.536,0c0,1.466,0,2.886,0,4.385
			c-1.807,0-3.631,0-5.536,0C7.218,2.965,7.218,1.52,7.218,0z"/>
		<path fill-rule="evenodd" clip-rule="evenodd" fill="#FFFFFF" d="M31.875,41.417c1.848,0,3.645,0,5.527,0c0,1.446,0,2.889,0,4.397
			c-1.825,0-3.645,0-5.527,0C31.875,44.374,31.875,42.956,31.875,41.417z"/>
		<path display="none" fill-rule="evenodd" clip-rule="evenodd" fill="#FFFFFF" d="M105.051,24.473c0,0.886,0.046,1.774-0.008,2.656
			c-0.207,3.39-2.291,5.684-5.66,6.05c-1.476,0.16-3.004,0.146-4.476-0.047c-2.945-0.384-4.808-2.304-5.13-5.613
			c-0.218-2.248-0.073-4.568,0.212-6.817c0.31-2.447,1.898-4.064,4.348-4.382c1.966-0.254,4.03-0.331,5.977-0.021
			c2.864,0.457,4.504,2.595,4.729,5.518c0.068,0.883,0.091,1.77,0.135,2.654C105.136,24.472,105.093,24.472,105.051,24.473z"/>
		<path display="none" fill-rule="evenodd" clip-rule="evenodd" fill="#FFFFFF" d="M68.136,32.956c-3.151,0-6.183,0.098-9.202-0.04
			c-1.562-0.07-2.642-1.179-3.052-2.662c-0.999-3.62-1.05-7.286-0.006-10.905c0.642-2.225,2.464-3.01,4.565-3.135
			c1.871-0.112,3.754-0.079,5.629-0.022c1.488,0.045,2.062,0.71,2.064,2.194C68.139,23.264,68.136,28.142,68.136,32.956z"/>
		<path display="none" fill-rule="evenodd" clip-rule="evenodd" fill="#FFFFFF" d="M18.204,33.111c-2.527,0-4.919,0.11-7.295-0.029
			c-2.54-0.15-4.12-1.552-4.557-3.946c-0.549-3.007-0.619-6.044,0.077-9.044c0.537-2.314,2.093-3.724,4.444-3.852
			c2.412-0.132,4.836-0.029,7.331-0.029C18.204,21.82,18.204,27.429,18.204,33.111z"/>
		<path display="none" fill-rule="evenodd" clip-rule="evenodd" fill="#FFFFFF" d="M292.438,32.956
			c-3.154,0-6.185,0.099-9.205-0.041c-1.559-0.071-2.643-1.18-3.047-2.665c-0.984-3.62-1.048-7.283-0.002-10.904
			c0.63-2.181,2.405-2.986,4.466-3.124c1.902-0.127,3.82-0.085,5.729-0.029c1.483,0.043,2.056,0.713,2.058,2.2
			C292.441,23.27,292.438,28.146,292.438,32.956z"/>
	</g>
</g>
</svg>
